<svg xmlns="http://www.w3.org/2000/svg" xmlns:xlink="http://www.w3.org/1999/xlink" viewBox="0 0 1366 768"><defs><style>.cls-1{fill:#ccc;}.cls-2{fill:#f5f5f5;}.cls-3{fill:#e1e1e1;}.cls-4{fill:#263238;}.cls-5{fill:#455a64;}.cls-6{fill:#61045f;}.cls-7{fill:#8e4b32;}.cls-8{fill:#843722;}.cls-9{fill:#aa076b;}.cls-10{fill:#aaa;}.cls-11{fill:#fff;}.cls-12,.cls-16,.cls-95{fill:none;stroke-miterlimit:10;}.cls-12{stroke:#eee;}.cls-13,.cls-96,.cls-97{fill:#eee;}.cls-14{fill:#c37c4d;}.cls-15{fill:#f2aa7e;}.cls-16{stroke:#000;}.cls-17{fill:url(#linear-gradient);}.cls-18{fill:url(#linear-gradient-2);}.cls-19{fill:url(#linear-gradient-3);}.cls-20{fill:url(#linear-gradient-4);}.cls-21{fill:url(#linear-gradient-5);}.cls-22{fill:url(#linear-gradient-6);}.cls-23{fill:url(#linear-gradient-7);}.cls-24{fill:url(#linear-gradient-8);}.cls-25{fill:url(#linear-gradient-9);}.cls-26{fill:url(#linear-gradient-10);}.cls-27{fill:url(#linear-gradient-11);}.cls-28{fill:url(#linear-gradient-12);}.cls-29{fill:url(#linear-gradient-13);}.cls-30{fill:url(#linear-gradient-14);}.cls-31{fill:url(#linear-gradient-15);}.cls-32{fill:url(#linear-gradient-16);}.cls-33{fill:url(#linear-gradient-17);}.cls-34{fill:url(#linear-gradient-18);}.cls-35{fill:url(#linear-gradient-19);}.cls-36{fill:url(#linear-gradient-20);}.cls-37{fill:url(#linear-gradient-21);}.cls-38{fill:url(#linear-gradient-22);}.cls-39{fill:url(#linear-gradient-23);}.cls-40{fill:url(#linear-gradient-24);}.cls-41{fill:url(#linear-gradient-25);}.cls-42{fill:url(#linear-gradient-26);}.cls-43{fill:url(#linear-gradient-27);}.cls-44{fill:url(#linear-gradient-28);}.cls-45{fill:url(#linear-gradient-29);}.cls-46{fill:url(#linear-gradient-30);}.cls-47{fill:url(#linear-gradient-31);}.cls-48{fill:url(#linear-gradient-32);}.cls-49{fill:url(#linear-gradient-33);}.cls-50{fill:url(#linear-gradient-34);}.cls-51{fill:url(#linear-gradient-35);}.cls-52{fill:url(#linear-gradient-36);}.cls-53{fill:url(#linear-gradient-37);}.cls-54{fill:url(#linear-gradient-38);}.cls-55{fill:url(#linear-gradient-39);}.cls-56{fill:url(#linear-gradient-40);}.cls-57{fill:url(#linear-gradient-41);}.cls-58{fill:url(#linear-gradient-42);}.cls-59{fill:url(#linear-gradient-43);}.cls-60{fill:url(#linear-gradient-44);}.cls-61{fill:url(#linear-gradient-45);}.cls-62{fill:url(#linear-gradient-46);}.cls-63{fill:url(#linear-gradient-47);}.cls-64{fill:url(#linear-gradient-48);}.cls-65{fill:url(#linear-gradient-49);}.cls-66{fill:url(#linear-gradient-50);}.cls-67{fill:url(#linear-gradient-51);}.cls-68{fill:url(#linear-gradient-52);}.cls-69{fill:url(#linear-gradient-53);}.cls-70{fill:url(#linear-gradient-54);}.cls-71{fill:url(#linear-gradient-55);}.cls-72{fill:url(#linear-gradient-56);}.cls-73{fill:url(#linear-gradient-57);}.cls-74{fill:url(#linear-gradient-58);}.cls-75{fill:url(#linear-gradient-59);}.cls-76{fill:url(#linear-gradient-60);}.cls-77{fill:url(#linear-gradient-61);}.cls-78{fill:url(#linear-gradient-62);}.cls-79{fill:url(#linear-gradient-63);}.cls-80{fill:url(#linear-gradient-64);}.cls-81{fill:url(#linear-gradient-65);}.cls-82{fill:url(#linear-gradient-66);}.cls-83{fill:url(#linear-gradient-67);}.cls-84{fill:url(#linear-gradient-68);}.cls-85{fill:url(#linear-gradient-69);}.cls-86{fill:url(#linear-gradient-70);}.cls-87{fill:url(#linear-gradient-71);}.cls-88{fill:url(#linear-gradient-72);}.cls-89{fill:url(#linear-gradient-73);}.cls-90{fill:url(#linear-gradient-74);}.cls-91{fill:url(#linear-gradient-75);}.cls-92{fill:url(#linear-gradient-76);}.cls-93{fill:url(#radial-gradient);}.cls-94{fill:url(#radial-gradient-2);}.cls-95{stroke:url(#linear-gradient-77);}.cls-96{font-size:69.81537px;font-family:SegoeUI, Segoe UI;}.cls-97{font-size:18.10732px;font-family:SegoeUI-LightItalic, Segoe UI;font-weight:300;font-style:italic;}.cls-98{letter-spacing:-0.02003em;}</style><linearGradient id="linear-gradient" x1="248.47606" y1="-13.76259" x2="823.47606" y2="78.23741" gradientTransform="translate(1218.3619 47.49843) rotate(148.47423)" gradientUnits="userSpaceOnUse"><stop offset="0" stop-color="#aa076b"/><stop offset="1" stop-color="#61045f" stop-opacity="0"/></linearGradient><linearGradient id="linear-gradient-2" x1="247.76522" y1="-9.31987" x2="822.76522" y2="82.68013" xlink:href="#linear-gradient"/><linearGradient id="linear-gradient-3" x1="250.0606" y1="-23.66596" x2="825.0606" y2="68.33404" xlink:href="#linear-gradient"/><linearGradient id="linear-gradient-4" x1="251.33962" y1="-31.65987" x2="826.33962" y2="60.34013" xlink:href="#linear-gradient"/><linearGradient id="linear-gradient-5" x1="249.347" y1="-19.206" x2="824.347" y2="72.794" xlink:href="#linear-gradient"/><linearGradient id="linear-gradient-6" x1="249.10553" y1="-17.6968" x2="824.10553" y2="74.3032" xlink:href="#linear-gradient"/><linearGradient id="linear-gradient-7" x1="246.31934" y1="-0.2831" x2="821.31934" y2="91.7169" xlink:href="#linear-gradient"/><linearGradient id="linear-gradient-8" x1="245.74029" y1="3.33593" x2="820.74029" y2="95.33593" xlink:href="#linear-gradient"/><linearGradient id="linear-gradient-9" x1="248.48572" y1="-13.82296" x2="823.48572" y2="78.17704" xlink:href="#linear-gradient"/><linearGradient id="linear-gradient-10" x1="257.0075" y1="-67.08408" x2="832.0075" y2="24.91592" xlink:href="#linear-gradient"/><linearGradient id="linear-gradient-11" x1="255.67359" y1="-58.74715" x2="830.67359" y2="33.25285" xlink:href="#linear-gradient"/><linearGradient id="linear-gradient-12" x1="256.26353" y1="-62.4343" x2="831.26353" y2="29.5657" xlink:href="#linear-gradient"/><linearGradient id="linear-gradient-13" x1="258.51647" y1="-76.5152" x2="833.51647" y2="15.4848" xlink:href="#linear-gradient"/><linearGradient id="linear-gradient-14" x1="252.77258" y1="-40.61583" x2="827.77258" y2="51.38417" xlink:href="#linear-gradient"/><linearGradient id="linear-gradient-15" x1="253.49342" y1="-45.12109" x2="828.49342" y2="46.87891" xlink:href="#linear-gradient"/><linearGradient id="linear-gradient-16" x1="252.05467" y1="-36.12892" x2="827.05467" y2="55.87108" xlink:href="#linear-gradient"/><linearGradient id="linear-gradient-17" x1="254.21695" y1="-49.64319" x2="829.21695" y2="42.35681" xlink:href="#linear-gradient"/><linearGradient id="linear-gradient-18" x1="254.94298" y1="-54.18083" x2="829.94298" y2="37.81917" xlink:href="#linear-gradient"/><linearGradient id="linear-gradient-19" x1="257.75858" y1="-71.77833" x2="832.75858" y2="20.22167" xlink:href="#linear-gradient"/><linearGradient id="linear-gradient-20" x1="242.24818" y1="25.16167" x2="817.24818" y2="117.16167" xlink:href="#linear-gradient"/><linearGradient id="linear-gradient-21" x1="244.24431" y1="12.68581" x2="819.24431" y2="104.68581" xlink:href="#linear-gradient"/><linearGradient id="linear-gradient-22" x1="247.04253" y1="-4.80306" x2="822.04253" y2="87.19694" xlink:href="#linear-gradient"/><linearGradient id="linear-gradient-23" x1="238.62387" y1="47.81358" x2="813.62387" y2="139.81358" xlink:href="#linear-gradient"/><linearGradient id="linear-gradient-24" x1="246.34058" y1="-0.41585" x2="821.34058" y2="91.58415" xlink:href="#linear-gradient"/><linearGradient id="linear-gradient-25" x1="250.76992" y1="-28.09925" x2="825.76992" y2="63.90075" xlink:href="#linear-gradient"/><linearGradient id="linear-gradient-26" x1="289.15719" y1="-268.01969" x2="864.15719" y2="-176.01969" xlink:href="#linear-gradient"/><linearGradient id="linear-gradient-27" x1="286.83497" y1="-253.50578" x2="861.83497" y2="-161.50578" xlink:href="#linear-gradient"/><linearGradient id="linear-gradient-28" x1="274.32626" y1="-175.32634" x2="849.32626" y2="-83.32634" xlink:href="#linear-gradient"/><linearGradient id="linear-gradient-29" x1="236.44235" y1="61.4481" x2="811.44235" y2="153.4481" xlink:href="#linear-gradient"/><linearGradient id="linear-gradient-30" x1="244.97398" y1="8.12537" x2="819.97398" y2="100.12537" xlink:href="#linear-gradient"/><linearGradient id="linear-gradient-31" x1="241.30593" y1="31.05072" x2="816.30593" y2="123.05072" xlink:href="#linear-gradient"/><linearGradient id="linear-gradient-32" x1="245.58636" y1="4.29804" x2="820.58636" y2="96.29804" xlink:href="#linear-gradient"/><linearGradient id="linear-gradient-33" x1="247.07097" y1="-4.98077" x2="822.07097" y2="87.01923" xlink:href="#linear-gradient"/><linearGradient id="linear-gradient-34" x1="247.78845" y1="-9.46505" x2="822.78845" y2="82.53495" xlink:href="#linear-gradient"/><linearGradient id="linear-gradient-35" x1="240.39562" y1="36.74013" x2="815.39562" y2="128.74013" xlink:href="#linear-gradient"/><linearGradient id="linear-gradient-36" x1="239.49976" y1="42.33928" x2="814.49976" y2="134.33928" xlink:href="#linear-gradient"/><linearGradient id="linear-gradient-37" x1="237.16523" y1="56.93005" x2="812.16523" y2="148.93005" xlink:href="#linear-gradient"/><linearGradient id="linear-gradient-38" x1="237.78143" y1="53.07882" x2="812.78143" y2="145.07882" xlink:href="#linear-gradient"/><linearGradient id="linear-gradient-39" x1="271.18182" y1="-155.67358" x2="846.18182" y2="-63.67358" xlink:href="#linear-gradient"/><linearGradient id="linear-gradient-40" x1="274.85077" y1="-178.60454" x2="849.85077" y2="-86.60454" xlink:href="#linear-gradient"/><linearGradient id="linear-gradient-41" x1="275.37164" y1="-181.85998" x2="850.37164" y2="-89.85998" xlink:href="#linear-gradient"/><linearGradient id="linear-gradient-42" x1="281.28305" y1="-218.80631" x2="856.28305" y2="-126.80631" xlink:href="#linear-gradient"/><linearGradient id="linear-gradient-43" x1="276.03375" y1="-185.99816" x2="851.03375" y2="-93.99816" xlink:href="#linear-gradient"/><linearGradient id="linear-gradient-44" x1="280.51955" y1="-214.03441" x2="855.51955" y2="-122.03441" xlink:href="#linear-gradient"/><linearGradient id="linear-gradient-45" x1="275.9867" y1="-185.70412" x2="850.9867" y2="-93.70412" xlink:href="#linear-gradient"/><linearGradient id="linear-gradient-46" x1="276.82063" y1="-190.91615" x2="851.82063" y2="-98.91615" xlink:href="#linear-gradient"/><linearGradient id="linear-gradient-47" x1="278.88029" y1="-203.78903" x2="853.88029" y2="-111.78903" xlink:href="#linear-gradient"/><linearGradient id="linear-gradient-48" x1="276.71123" y1="-190.23243" x2="851.71123" y2="-98.23243" xlink:href="#linear-gradient"/><linearGradient id="linear-gradient-49" x1="278.16406" y1="-199.31259" x2="853.16406" y2="-107.31259" xlink:href="#linear-gradient"/><linearGradient id="linear-gradient-50" x1="288.39071" y1="-263.22919" x2="863.39071" y2="-171.22919" xlink:href="#linear-gradient"/><linearGradient id="linear-gradient-51" x1="286.20299" y1="-249.55592" x2="861.20299" y2="-157.55592" xlink:href="#linear-gradient"/><linearGradient id="linear-gradient-52" x1="287.61855" y1="-258.40318" x2="862.61855" y2="-166.40318" xlink:href="#linear-gradient"/><linearGradient id="linear-gradient-53" x1="289.89626" y1="-272.63884" x2="864.89626" y2="-180.63884" xlink:href="#linear-gradient"/><linearGradient id="linear-gradient-54" x1="282.14671" y1="-224.20415" x2="857.14671" y2="-132.20415" xlink:href="#linear-gradient"/><linearGradient id="linear-gradient-55" x1="285.40724" y1="-244.58247" x2="860.40724" y2="-152.58247" xlink:href="#linear-gradient"/><linearGradient id="linear-gradient-56" x1="282.97954" y1="-229.40936" x2="857.97954" y2="-137.40936" xlink:href="#linear-gradient"/><linearGradient id="linear-gradient-57" x1="284.60575" y1="-239.5732" x2="859.60575" y2="-147.5732" xlink:href="#linear-gradient"/><linearGradient id="linear-gradient-58" x1="275.15567" y1="-180.51014" x2="850.15567" y2="-88.51014" xlink:href="#linear-gradient"/><linearGradient id="linear-gradient-59" x1="263.83684" y1="-109.7675" x2="838.83684" y2="-17.7675" xlink:href="#linear-gradient"/><linearGradient id="linear-gradient-60" x1="263.03636" y1="-104.76445" x2="838.03636" y2="-12.76445" xlink:href="#linear-gradient"/><linearGradient id="linear-gradient-61" x1="264.64198" y1="-114.79959" x2="839.64198" y2="-22.79959" xlink:href="#linear-gradient"/><linearGradient id="linear-gradient-62" x1="259.28049" y1="-81.29028" x2="834.28049" y2="10.70972" xlink:href="#linear-gradient"/><linearGradient id="linear-gradient-63" x1="260.82807" y1="-90.96267" x2="835.82807" y2="1.03733" xlink:href="#linear-gradient"/><linearGradient id="linear-gradient-64" x1="260.05139" y1="-86.10841" x2="835.05139" y2="5.89159" xlink:href="#linear-gradient"/><linearGradient id="linear-gradient-65" x1="266.2599" y1="-124.91163" x2="841.2599" y2="-32.91163" xlink:href="#linear-gradient"/><linearGradient id="linear-gradient-66" x1="261.45396" y1="-94.87449" x2="836.45396" y2="-2.87449" xlink:href="#linear-gradient"/><linearGradient id="linear-gradient-67" x1="262.24208" y1="-99.80023" x2="837.24208" y2="-7.80023" xlink:href="#linear-gradient"/><linearGradient id="linear-gradient-68" x1="265.44973" y1="-119.84805" x2="840.44973" y2="-27.84805" xlink:href="#linear-gradient"/><linearGradient id="linear-gradient-69" x1="272.00911" y1="-160.84418" x2="847.00911" y2="-68.84418" xlink:href="#linear-gradient"/><linearGradient id="linear-gradient-70" x1="272.67077" y1="-164.97957" x2="847.67077" y2="-72.97957" xlink:href="#linear-gradient"/><linearGradient id="linear-gradient-71" x1="270.35397" y1="-150.49952" x2="845.35397" y2="-58.49952" xlink:href="#linear-gradient"/><linearGradient id="linear-gradient-72" x1="273.49832" y1="-170.15171" x2="848.49832" y2="-78.15171" xlink:href="#linear-gradient"/><linearGradient id="linear-gradient-73" x1="267.72481" y1="-134.0673" x2="842.72481" y2="-42.0673" xlink:href="#linear-gradient"/><linearGradient id="linear-gradient-74" x1="266.90999" y1="-128.97464" x2="841.90999" y2="-36.97464" xlink:href="#linear-gradient"/><linearGradient id="linear-gradient-75" x1="269.36301" y1="-144.30603" x2="844.36301" y2="-52.30603" xlink:href="#linear-gradient"/><linearGradient id="linear-gradient-76" x1="268.5426" y1="-139.17848" x2="843.5426" y2="-47.17848" xlink:href="#linear-gradient"/><radialGradient id="radial-gradient" cx="496" cy="169.04187" r="503.50968" gradientUnits="userSpaceOnUse"><stop offset="0" stop-color="#61045f"/><stop offset="1" stop-color="#470345"/></radialGradient><radialGradient id="radial-gradient-2" cx="469" cy="387.04187" r="389.32377" gradientUnits="userSpaceOnUse"><stop offset="0" stop-color="#aa076b"/><stop offset="1" stop-color="#61045f"/></radialGradient><linearGradient id="linear-gradient-77" x1="358.79571" y1="411.05199" x2="781.59295" y2="411.05199" gradientTransform="translate(147.97006 -136.27288) rotate(15.21598)" gradientUnits="userSpaceOnUse"><stop offset="0" stop-color="#aa07af"/><stop offset="1" stop-color="#aa076b"/></linearGradient></defs><g id="BG"><rect class="cls-1" width="1366" height="768"/></g><g id="Layer_3" data-name="Layer 3"><path class="cls-2" d="M465.06886,445.88419c-23.048-10.32807-32.694-35.82068-36.41273-59.681-.621-3.98254-1.85173-8.07158-.632-11.903,1.22113-3.83053,5.1599-7.04157,9.02113-6.05021,3.20276.82258,5.13561,3.9967,7.31914,6.51a23.56507,23.56507,0,0,0,10.97216,7.09351c2.76938.82682,6.03954,1.03143,8.26542-.815,3.0539-2.5347,2.5566-7.327,1.78116-11.25877q-2.169-10.99046-4.33634-21.97951c-.77542-3.9306-1.55368-7.94712-1.04254-11.91616.51126-3.96882,2.5542-7.95485,6.0977-9.71827,3.545-1.76286,8.58621-.48773,10.1119,3.21387.63506,1.54019.62591,3.2669,1.04689,4.87928.42109,1.61325,1.52712,3.27561,3.16563,3.4346,1.659.16192,3.02091-1.25456,3.97754-2.631,3.30436-4.74893,5.0839-10.39405,6.68886-15.97667s3.111-11.27163,5.96984-16.30923,7.30216-9.44516,12.87748-10.84008c5.57651-1.39438,12.24533.93876,14.72548,6.20025,2.487,5.27631.32407,11.5235-2.34164,16.687a89.43875,89.43875,0,0,1-14.96483,20.926c-1.07249,1.11725-2.23579,2.32542-2.43191,3.87366-.35443,2.78722,2.62923,4.91858,5.38432,5.28686,3.12022.41739,6.24534-.4947,9.38288-.7188,3.13775-.22432,6.72066.49492,8.43485,3.1739,2.37965,3.71521-.18011,8.57369-2.96363,11.96691a76.61889,76.61889,0,0,1-19.82,17.10709c-2.693,1.61172-5.56269,3.12261-7.50926,5.602-1.94646,2.48058-2.68062,6.28607-.74145,8.78875,1.94124,2.50639,5.73082,2.70262,8.65612,1.56077,2.92422-1.14011,5.3252-3.305,8.00712-4.94669,5.01921-3.0735,12.075-4.03339,16.43165-.01992,2.863,2.63826,3.88,6.87844,3.42695,10.7608-.45179,3.88226-2.18581,7.4827-4.11071,10.86546-6.72828,11.82436-16.26339,22.12989-27.98093,28.8745-11.7159,6.74429-23.11711,10.14012-36.45628,7.9591"/><path class="cls-3" d="M468.35276,429.85514a358.9128,358.9128,0,0,1,6.7544-40.64018q1.17391-5.34855,2.31768-10.56186c.76878-3.46454,1.5307-6.901,2.48385-10.21536a179.243,179.243,0,0,1,6.56822-18.73308c2.37713-5.85779,4.8467-11.32944,7.19269-16.42869,2.35852-5.09673,4.64592-9.80559,6.914-14.00832a142.24249,142.24249,0,0,1,12.16726-19.01675c1.6065-2.12515,2.90669-3.7323,3.80309-4.80991.43242-.51289.771-.916,1.02643-1.21927a3.00743,3.00743,0,0,1,.36915-.39834,2.83473,2.83473,0,0,1-.31046.447c-.2412.31459-.56243.733-.9698,1.26512-.85721,1.10755-2.12036,2.74236-3.69038,4.89049a150.459,150.459,0,0,0-11.93675,19.094c-2.23274,4.20664-4.48758,8.91746-6.81757,14.018-2.32051,5.10752-4.76581,10.57994-7.12062,16.42956a181.24289,181.24289,0,0,0-6.5008,18.67362c-.943,3.29772-1.69481,6.70433-2.46295,10.1778q-1.14108,5.20628-2.31343,10.55707a367.99222,367.99222,0,0,0-6.7996,40.55012"/><path class="cls-3" d="M480.11036,368.37a8.14469,8.14469,0,0,1-.70487-1.60552c-.41434-1.04831-.96327-2.58381-1.61368-4.49151-1.30422-3.81245-2.92563-9.13906-4.6909-15.018-1.766-5.88283-3.45844-11.17068-4.81676-14.95264-.67438-1.89278-1.235-3.42-1.63635-4.46984a8.01354,8.01354,0,0,1-.54586-1.66672,7.98887,7.98887,0,0,1,.8096,1.55521c.48349,1.01826,1.12062,2.52088,1.85815,4.39678,1.48944,3.74842,3.26788,9.03376,5.03489,14.92161,1.72759,5.80617,3.28933,11.05884,4.4828,15.0722.55034,1.80991,1.016,3.33442,1.38936,4.55837A8.00676,8.00676,0,0,1,480.11036,368.37Z"/><path class="cls-3" d="M528.90738,349.2582a11.13438,11.13438,0,0,1-1.97227.62679c-1.27632.36337-3.126.879-5.39021,1.58951-4.539,1.38436-10.74239,3.51648-17.48331,6.16846-6.73852,2.66483-12.73373,5.33565-17.014,7.39275-2.149,1.01357-3.86483,1.88069-5.05491,2.473a11.06557,11.06557,0,0,1-1.88233.86134,11,11,0,0,1,1.74664-1.11811c1.151-.67122,2.83546-1.61216,4.96008-2.69064,4.23343-2.18407,10.21634-4.94048,16.97445-7.61423a181.74789,181.74789,0,0,1,17.60637-5.97888c2.29067-.64759,4.16657-1.08817,5.46882-1.36454A10.90968,10.90968,0,0,1,528.90738,349.2582Z"/><path class="cls-3" d="M468.79735,428.80541a2.62656,2.62656,0,0,1-.46475-.55067c-.32842-.4506-.72915-1.00018-1.2146-1.66574-1.04831-1.45078-2.51052-3.5902-4.28221-6.25666-3.54741-5.33108-8.21576-12.849-13.25479-21.21454-5.04261-8.36886-9.63441-15.92016-13.0652-21.31733-1.67673-2.622-3.057-4.77833-4.08218-6.38145-.44069-.69681-.80363-1.271-1.10145-1.74306a2.65136,2.65136,0,0,1-.34278-.637,2.70967,2.70967,0,0,1,.46539.55231c.32821.45027.72861.99876,1.21416,1.66421,1.04822,1.45089,2.51031,3.59009,4.28234,6.25666,3.54729,5.331,8.21553,12.84927,13.25663,21.21835,5.04054,8.36636,9.63234,15.91656,13.06334,21.31493,1.67782,2.62051,3.05684,4.77834,4.082,6.38005.4408.6968.80385,1.27252,1.10146,1.74337A2.67982,2.67982,0,0,1,468.79735,428.80541Z"/><path class="cls-3" d="M531.90368,394.30419a2.7552,2.7552,0,0,1-.61492.40247c-.4922.27647-1.09634.61568-1.828,1.02707-1.69209.92908-3.97644,2.183-6.75528,3.70716-5.70338,3.13209-13.53105,7.5477-22.17389,12.43863-8.64489,4.89376-16.52135,9.24142-22.29126,12.25558-2.88447,1.50828-5.23057,2.7049-6.86854,3.4984-.75843.36175-1.38359.65957-1.89158.90316a2.68333,2.68333,0,0,1-.68287.26875,2.80465,2.80465,0,0,1,.61449-.40367c.49121-.27484,1.09535-.61393,1.82831-1.02555,1.6922-.92918,3.97536-2.18167,6.75409-3.70715,5.70372-3.131,13.53224-7.54781,22.17736-12.44048,8.64262-4.892,16.51777-9.23925,22.28768-12.25352,2.88457-1.5086,5.23057-2.7049,6.86984-3.49873.75835-.36174,1.38218-.66087,1.89169-.90316A2.68665,2.68665,0,0,1,531.90368,394.30419Z"/><rect class="cls-4" x="157.13662" y="88.5" width="450.36338" height="333.44622"/><rect class="cls-5" x="173.5" y="105.5" width="414" height="299"/><path class="cls-6" d="M224.5,346.141a43.96393,43.96393,0,0,0-43.83507-43.83507H145.33507A43.96393,43.96393,0,0,0,101.5,346.141v80.29283h123Z"/><path d="M145.335,484.46973c-23.895,0-43.335-23.11328-43.335-51.52246V416H224v16.94727c0,28.40918-19.43994,51.52246-43.335,51.52246Z"/><path d="M223.5,416.5v16.4472c0,28.13413-19.21576,51.02289-42.83508,51.02289H145.33505c-23.61932,0-42.835-22.88876-42.835-51.02289V416.5h121m1-1h-123v17.4472c0,28.61261,19.72577,52.02289,43.835,52.02289h35.32987c24.10931,0,43.83508-23.41028,43.83508-52.02289V415.5Z"/><circle class="cls-7" cx="206.48298" cy="230.22181" r="11.84119"/><circle class="cls-8" cx="206.6132" cy="230.17909" r="6.1102"/><circle class="cls-7" cx="117.20213" cy="229.23538" r="11.84119"/><circle class="cls-8" cx="117.33235" cy="229.19267" r="6.1102"/><rect class="cls-8" x="139.80727" y="260.25296" width="45.43741" height="69.35106" rx="22.71868"/><circle cx="162.3457" cy="203.33252" r="53.14893"/><path d="M162.34576,150.68381a52.64893,52.64893,0,1,1-52.649,52.64894,52.70858,52.70858,0,0,1,52.649-52.64894m0-1a53.64893,53.64893,0,1,0,53.64893,53.64894,53.64894,53.64894,0,0,0-53.64893-53.64894Z"/><rect class="cls-7" x="118.51064" y="171.92849" width="87.67021" height="130.19681" rx="43.83506"/><path d="M126.36182,201.52441a17.165,17.165,0,1,1,17.16455-17.165A17.18446,17.18446,0,0,1,126.36182,201.52441Z"/><path d="M126.36169,167.69444a16.6649,16.6649,0,1,1-16.66488,16.6649,16.68377,16.68377,0,0,1,16.66488-16.6649m0-1a17.6649,17.6649,0,1,0,17.66489,17.6649,17.6649,17.6649,0,0,0-17.66489-17.6649Z"/><path d="M144.68066,197.59863a25.67017,25.67017,0,1,1,25.67041-25.66992A25.69918,25.69918,0,0,1,144.68066,197.59863Z"/><path d="M144.68085,146.75827a25.17022,25.17022,0,1,1-25.1702,25.17021,25.19873,25.19873,0,0,1,25.1702-25.17021m0-1a26.17022,26.17022,0,1,0,26.17022,26.17021,26.17021,26.17021,0,0,0-26.17022-26.17021Z"/><circle cx="181.64648" cy="172.90967" r="29.92285"/><path d="M181.6463,143.487a29.42288,29.42288,0,1,1-29.42285,29.42287A29.45618,29.45618,0,0,1,181.6463,143.487m0-1a30.42288,30.42288,0,1,0,30.42285,30.42287A30.42286,30.42286,0,0,0,181.6463,142.487Z"/><circle cx="141.40967" cy="231.46582" r="5.38818"/><path d="M141.40958,226.57742a4.8883,4.8883,0,1,1-4.88831,4.88831,4.89384,4.89384,0,0,1,4.88831-4.88831m0-1a5.8883,5.8883,0,1,0,5.8883,5.88831,5.88831,5.88831,0,0,0-5.8883-5.88831Z"/><path d="M181.97363,236.854a5.38818,5.38818,0,1,1,5.38819-5.38818A5.39452,5.39452,0,0,1,181.97363,236.854Z"/><path d="M181.97339,226.57742a4.8883,4.8883,0,1,1-4.88831,4.88831,4.89384,4.89384,0,0,1,4.88831-4.88831m0-1a5.8883,5.8883,0,1,0,5.8883,5.88831,5.88831,5.88831,0,0,0-5.8883-5.88831Z"/><rect class="cls-8" x="159.07447" y="231.46572" width="7.19681" height="26.17021" rx="3.5984"/><path d="M175.26221,284.86182a26.6515,26.6515,0,0,0-27.97559-2.7334,16.00441,16.00441,0,0,1,.31836-13.33057l30.42139,5.87354A16.03644,16.03644,0,0,1,175.26221,284.86182Z"/><path d="M147.89157,269.36224l29.65872,5.72629a15.53232,15.53232,0,0,1-2.41272,9.05448,27.1544,27.1544,0,0,0-27.58966-2.69571,15.49944,15.49944,0,0,1,.34366-12.08506m-.56372-1.12732a16.50612,16.50612,0,0,0-.283,14.57654,26.14716,26.14716,0,0,1,28.32269,2.76731,16.51586,16.51586,0,0,0,3.12622-11.32654l-31.16592-6.01731Z"/><path class="cls-9" d="M162.01611,291.84717a16.09366,16.09366,0,0,1-14.30664-8.812,25.65077,25.65077,0,0,1,26.96338,2.63476,15.88952,15.88952,0,0,1-10.30127,6.0044,16.24974,16.24974,0,0,1-2.35547.17285Z"/><path class="cls-9" d="M159.07446,280.88062a24.87355,24.87355,0,0,1,14.88489,4.8786,15.3857,15.3857,0,0,1-9.6604,5.42038,15.52961,15.52961,0,0,1-15.9061-7.9195,24.86348,24.86348,0,0,1,10.68161-2.37948m0-1a26.04693,26.04693,0,0,0-12.0296,2.93084,16.5351,16.5351,0,0,0,28.32269,2.76731,26.05141,26.05141,0,0,0-16.29309-5.69815Z"/><ellipse class="cls-10" cx="166.5" cy="615.14019" rx="139" ry="17.35981"/><rect x="119" y="428" width="29" height="183"/><path d="M147.5,428.5v182h-28v-182h28m1-1h-30v184h30v-184Z"/><path class="cls-11" d="M91.78223,614.05078q-.01466-.46288-.01368-.92871a28.09431,28.09431,0,1,1,56.18848.12305q-.00074.46728-.01807.92968Z"/><path d="M119.86121,585.58875l.062.00006a27.59437,27.59437,0,0,1,27.53366,27.655q-.00046.212-.00449.42963l-55.18148-.12121q-.00307-.21735-.0026-.42969a27.63748,27.63748,0,0,1,27.59287-27.53375m0-1A28.594,28.594,0,0,0,91.26834,613.1203q-.0016.71923.033,1.42975l57.11624.12549q.03659-.71055.03931-1.42963a28.59434,28.59434,0,0,0-28.53146-28.6571l-.06424-.00006Z"/><rect x="178.42285" y="428.08691" width="29" height="183"/><path d="M206.92285,428.5874v182h-28v-182h28m1-1h-30v184h30v-184Z"/><path class="cls-11" d="M178.48389,614.26172q-.01685-.46288-.01807-.92969a28.09431,28.09431,0,1,1,56.18848-.12305q.00145.46729-.01367.92969Z"/><path d="M206.56232,585.67615a27.63719,27.63719,0,0,1,27.59222,27.53363q.00047.21231-.00262.42981l-55.18152.12121q-.004-.21734-.00446-.42975a27.59427,27.59427,0,0,1,27.53388-27.65484l.06189-.00006h.00061m-.00061-1-.06427.00006a28.59431,28.59431,0,0,0-28.5315,28.657q.00156.71934.03931,1.42969l57.11621-.12549q.03351-.71062.03308-1.42981a28.59373,28.59373,0,0,0-28.59283-28.53149Z"/><rect class="cls-6" x="209.5" y="293.5" width="37" height="92" rx="18.49998" transform="translate(-166.61484 232.153) rotate(-40.89773)"/><rect class="cls-6" x="225" y="328" width="92" height="37" rx="18.49998" transform="translate(-149.95961 218.8432) rotate(-35.10077)"/><line class="cls-12" x1="323" y1="172" x2="323" y2="305"/><rect class="cls-7" x="293.1348" y="312.9078" width="26.17021" height="14.56019" rx="7.28009" transform="translate(-134.87591 278.64993) rotate(-40.89773)"/><line class="cls-12" x1="459.5" y1="294" x2="326.5" y2="294"/><rect class="cls-7" x="300.93583" y="290.71557" width="44.65052" height="29.03506" rx="14.51752" transform="translate(-120.92474 286.15619) rotate(-40.89772)"/><rect class="cls-11" x="300.64524" y="281.66447" width="38.65879" height="9.86424" transform="translate(-81.71566 438.80133) rotate(-62.60257)"/><rect class="cls-7" x="295.34223" y="290.2567" width="32.31699" height="7.19681" rx="3.5984" transform="translate(-65.12616 497.65823) rotate(-71.74938)"/><rect class="cls-6" x="54.32348" y="327.9055" width="92" height="37" rx="18.49998" transform="translate(-259.39685 320.65964) rotate(-69.75452)"/><rect class="cls-6" x="34.83936" y="386.04429" width="92" height="37" rx="18.49998" transform="translate(-331.08032 381.88902) rotate(-75.55148)"/><rect class="cls-7" x="55.5549" y="439.50096" width="26.17021" height="14.56019" rx="7.28009" transform="translate(-374.29071 356.57494) rotate(-69.75452)"/><rect class="cls-7" x="38.33131" y="453.48409" width="44.65052" height="29.03506" rx="14.51752" transform="translate(-399.42106 362.96207) rotate(-69.75452)"/><rect class="cls-7" x="29.70342" y="457.41156" width="32.31699" height="7.19681" rx="3.5984" transform="translate(-279.34348 131.04792) rotate(-38.90286)"/><path class="cls-13" d="M361.5,199.5v82h-12v-82h12m1-1h-14v84h14v-84Z"/><path class="cls-13" d="M375.5,224.5v57h-12v-57h12m1-1h-14v59h14v-59Z"/><path class="cls-13" d="M389.5,216.5v65h-12v-65h12m1-1h-14v67h14v-67Z"/><path class="cls-13" d="M403.83124,254.5v27.26434h-12V254.5h12m1-1h-14v29.26434h14V253.5Z"/><path class="cls-13" d="M431.83118,264.5v17.39648h-12V264.5h12m1-1h-14v19.39648h14V263.5Z"/><path class="cls-13" d="M417.83124,185.5v96.26434h-12V185.5h12m1-1h-14v98.26434h14V184.5Z"/><line class="cls-12" x1="454.5" y1="287.5" x2="459.5" y2="294.5"/><line class="cls-12" x1="459.57164" y1="294.53959" x2="454.20543" y2="301.26296"/><line class="cls-12" x1="316.31487" y1="176.454" x2="323.2708" y2="171.39288"/><line class="cls-12" x1="323.30976" y1="171.32089" x2="330.07988" y2="176.62801"/><ellipse class="cls-10" cx="1087.55464" cy="593.59045" rx="96.55464" ry="16.67831"/><ellipse class="cls-10" cx="1230.22493" cy="608.00159" rx="133.54324" ry="16.67831"/><polygon points="1325.338 535.946 1273.001 389.913 1193.759 389.913 1140.824 535.946 1325.338 535.946"/><rect x="1190.65137" y="428.23633" width="27.82227" height="175.77637"/><path d="M1217.97327,428.736V603.5127H1191.151V428.736h26.82227m1-1H1190.151V604.5127h28.82227V427.736Z"/><path class="cls-6" d="M1218.93188,606.19a27.47183,27.47183,0,0,0-54.94352-.12068q-.00151.691.03174,1.37367l54.874.12052Q1218.92926,606.881,1218.93188,606.19Z"/><rect x="1247.74121" y="428.32031" width="27.82227" height="175.77637"/><path d="M1275.06335,428.82V603.59662h-26.82226V428.82h26.82226m1-1h-28.82226V604.59662h28.82226V427.82Z"/><path class="cls-6" d="M1223.26388,606.74861a27.47182,27.47182,0,1,1,54.94351-.12068q.00153.691-.03173,1.37366l-54.874.12053Q1223.26651,607.43953,1223.26388,606.74861Z"/><path class="cls-9" d="M1150.89258,430.919a15.61572,15.61572,0,0,1-10.22363-3.79883l-2.46973-2.13965a15.68676,15.68676,0,0,1-1.582-22.06152l36.73535-42.41163a15.68716,15.68716,0,0,1,22.06152-1.582l2.46973,2.13965a15.68622,15.68622,0,0,1,1.582,22.061l-36.73535,42.41211a15.63723,15.63723,0,0,1-11.83789,5.38086Z"/><path class="cls-9" d="M1185.1908,355.62631a15.11057,15.11057,0,0,1,9.89538,3.677l2.47022,2.13947a15.15709,15.15709,0,0,1,1.53161,21.35608l-36.735,42.41144a15.18635,15.18635,0,0,1-21.3562,1.5317l-2.4701-2.13955a15.157,15.157,0,0,1-1.53161-21.356l36.735-42.41144a15.14015,15.14015,0,0,1,11.4607-5.20868m0-1a16.11721,16.11721,0,0,0-12.21656,5.554l-36.735,42.41144a16.18727,16.18727,0,0,0,1.63281,22.76663l2.47009,2.13952a16.18624,16.18624,0,0,0,22.76673-1.63284l36.735-42.41144a16.18731,16.18731,0,0,0-1.63281-22.76666l-2.47022-2.1395a16.06285,16.06285,0,0,0-10.55-3.92111Z"/><path class="cls-9" d="M1095.00488,434.02637a15.64639,15.64639,0,0,1-15.61328-14.77051l-.18164-3.2627a15.68863,15.68863,0,0,1,14.74707-16.48535l56.02149-3.11718c.292-.01563.582-.02442.87109-.02442a15.646,15.646,0,0,1,15.61426,14.77149l.18164,3.26269a15.68863,15.68863,0,0,1-14.74707,16.48535L1095.877,434.002c-.293.01563-.582.02442-.87109.02442Z"/><path class="cls-9" d="M1150.85107,396.86707a15.14406,15.14406,0,0,1,15.11329,14.29888l.18151,3.26288a15.1873,15.1873,0,0,1-14.27539,15.9574l-56.02209,3.11673c-.2832.01575-.56384.02347-.84412.02347a15.14425,15.14425,0,0,1-15.1134-14.29889l-.18152-3.26285a15.15712,15.15712,0,0,1,14.27551-15.95743l56.0221-3.11673c.2832-.01574.56384-.02346.84411-.02346m0-1c-.2987,0-.59777.00828-.89965.02506l-56.0221,3.11673a16.18733,16.18733,0,0,0-15.21838,17.01141l.18152,3.26285a16.19288,16.19288,0,0,0,16.11181,15.24338c.29883,0,.59778-.00827.89966-.02506l56.0221-3.11673a16.18715,16.18715,0,0,0,15.21826-17.01141l-.18152-3.26285a16.19268,16.19268,0,0,0-16.1117-15.24338Z"/><rect class="cls-7" x="1029.46936" y="408.19808" width="6.27866" height="28.19407" rx="3.13933" transform="translate(110.91943 1050.86712) rotate(-56.53571)"/><path class="cls-9" d="M1176.35156,458.2002V381.56006a41.66125,41.66125,0,0,1,41.61426-41.61426h33.94238a41.66125,41.66125,0,0,1,41.61426,41.61426V458.2002Z"/><path class="cls-9" d="M1251.90833,340.44562a41.16076,41.16076,0,0,1,41.11425,41.11422v76.14075H1176.8512V381.55984a41.16076,41.16076,0,0,1,41.11425-41.11422h33.94288m0-1h-33.94288a42.238,42.238,0,0,0-42.11425,42.11422v77.14075h118.17138V381.55984a42.238,42.238,0,0,0-42.11425-42.11422Z"/><path d="M1217.96582,514.43848c-22.94629,0-41.61426-22.19727-41.61426-49.48047V448.69629h117.1709V464.958c0,27.2832-18.668,49.48047-41.61426,49.48047Z"/><path d="M1293.02258,449.196v15.7623c0,27.008-18.44372,48.98059-41.11425,48.98059h-33.94288c-22.67053,0-41.11425-21.97259-41.11425-48.98059V449.196h116.17138m1-1H1175.8512v16.7623c0,27.48932,18.95141,49.98059,42.11425,49.98059h33.94288c23.16284,0,42.11425-22.49127,42.11425-49.98059V448.196Z"/><rect class="cls-14" x="1210.04934" y="306.32838" width="48.99788" height="61.48753" rx="22.24676"/><path class="cls-9" d="M1223.31055,454.88379a15.61577,15.61577,0,0,1-10.22168-3.79883l-2.47071-2.13965a15.65917,15.65917,0,0,1-1.582-22.06152l36.73535-42.41211a15.68648,15.68648,0,0,1,22.06153-1.58154l2.46972,2.13916a15.68677,15.68677,0,0,1,1.582,22.06152L1235.15039,449.502a15.6432,15.6432,0,0,1-11.83887,5.38184Z"/><path class="cls-9" d="M1257.61,379.59088a15.1107,15.1107,0,0,1,9.89538,3.677l2.47022,2.13956a15.18744,15.18744,0,0,1,1.53161,21.356l-36.735,42.41144a15.18618,15.18618,0,0,1-21.35608,1.53167l-2.47022-2.13952a15.157,15.157,0,0,1-1.53161-21.356l36.735-42.41144a15.14015,15.14015,0,0,1,11.4607-5.20868m0-1a16.11721,16.11721,0,0,0-12.21656,5.554l-36.735,42.41143a16.18728,16.18728,0,0,0,1.63281,22.76664l2.47021,2.13952a16.18612,16.18612,0,0,0,22.76661-1.63284l36.735-42.41144a16.18727,16.18727,0,0,0-1.63281-22.76663l-2.47009-2.13953a16.06318,16.06318,0,0,0-10.55017-3.92111Z"/><path d="M1270.47168,287.61377h3.09131a14.76709,14.76709,0,0,1,14.76709,14.76709v70.34277a14.76758,14.76758,0,0,1-14.76758,14.76758h-3.09131a14.76709,14.76709,0,0,1-14.76709-14.76709V302.38135A14.76758,14.76758,0,0,1,1270.47168,287.61377Z"/><path d="M1273.56287,288.11353a14.2835,14.2835,0,0,1,14.26733,14.26739v70.3432a14.28351,14.28351,0,0,1-14.26733,14.2674h-3.09119a14.28361,14.28361,0,0,1-14.26746-14.2674v-70.3432a14.2836,14.2836,0,0,1,14.26746-14.26739h3.09119m0-1h-3.09119a15.31231,15.31231,0,0,0-15.26746,15.26739v70.3432a15.31232,15.31232,0,0,0,15.26746,15.2674h3.09119a15.31221,15.31221,0,0,0,15.26733-15.2674v-70.3432a15.31221,15.31221,0,0,0-15.26733-15.26739Z"/><rect x="1248.01855" y="215.55762" width="47.03711" height="65.2915" rx="21.31055"/><path d="M1273.74487,216.05783a20.83411,20.83411,0,0,1,20.81055,20.81055v22.67013a20.83411,20.83411,0,0,1-20.81055,20.81055h-4.416a20.83411,20.83411,0,0,1-20.81055-20.81055V236.86838a20.83411,20.83411,0,0,1,20.81055-20.81055h4.416m0-1h-4.416a21.87464,21.87464,0,0,0-21.81055,21.81055v22.67013a21.87463,21.87463,0,0,0,21.81055,21.81055h4.416a21.87463,21.87463,0,0,0,21.81055-21.81055V236.86838a21.87464,21.87464,0,0,0-21.81055-21.81055Z"/><path class="cls-9" d="M1262.44336,276.08447h18.187a8.66064,8.66064,0,0,1,8.66064,8.66064v1.855a8.66016,8.66016,0,0,1-8.66016,8.66016h-18.187a8.66064,8.66064,0,0,1-8.66064-8.66064v-1.855A8.66016,8.66016,0,0,1,1262.44336,276.08447Z"/><path class="cls-9" d="M1280.63049,276.58463a8.16969,8.16969,0,0,1,8.16053,8.16043v1.85473a8.16969,8.16969,0,0,1-8.16053,8.16043h-18.18725a8.16969,8.16969,0,0,1-8.16053-8.16043v-1.85473a8.16969,8.16969,0,0,1,8.16053-8.16043h18.18725m0-1h-18.18725a9.18738,9.18738,0,0,0-9.16053,9.16043v1.85473a9.18738,9.18738,0,0,0,9.16053,9.16043h18.18725a9.18738,9.18738,0,0,0,9.16053-9.16043v-1.85473a9.18738,9.18738,0,0,0-9.16053-9.16043Z"/><rect x="1175.00195" y="218.43994" width="47.03711" height="65.2915" rx="21.31055"/><path d="M1200.72839,218.94005a20.83411,20.83411,0,0,1,20.81055,20.81055v22.67015a20.83411,20.83411,0,0,1-20.81055,20.81054h-4.416a20.83411,20.83411,0,0,1-20.81055-20.81054V239.7506a20.83411,20.83411,0,0,1,20.81055-20.81055h4.416m0-1h-4.416a21.87471,21.87471,0,0,0-21.81055,21.81055v22.67015a21.8747,21.8747,0,0,0,21.81055,21.81054h4.416a21.87463,21.87463,0,0,0,21.81055-21.81054V239.7506a21.87464,21.87464,0,0,0-21.81055-21.81055Z"/><path d="M1197.45508,290.49561h3.09082a14.76758,14.76758,0,0,1,14.76758,14.76758v70.34424a14.7666,14.7666,0,0,1-14.7666,14.7666h-3.09277a14.7666,14.7666,0,0,1-14.7666-14.7666V305.26318a14.76758,14.76758,0,0,1,14.76758-14.76758Z"/><path d="M1200.54639,290.99576a14.28361,14.28361,0,0,1,14.26745,14.26739v70.3432a14.28361,14.28361,0,0,1-14.26745,14.2674h-3.09119a14.28361,14.28361,0,0,1-14.26746-14.2674v-70.3432a14.28361,14.28361,0,0,1,14.26746-14.26739h3.09119m0-1h-3.09119a15.31232,15.31232,0,0,0-15.26746,15.26739v70.3432a15.31232,15.31232,0,0,0,15.26746,15.2674h3.09119a15.31231,15.31231,0,0,0,15.26745-15.2674v-70.3432a15.31231,15.31231,0,0,0-15.26745-15.26739Z"/><path class="cls-9" d="M1189.42676,278.9668h18.187a8.66064,8.66064,0,0,1,8.66064,8.66064v1.855a8.66016,8.66016,0,0,1-8.66016,8.66016h-18.187a8.66064,8.66064,0,0,1-8.66064-8.66064v-1.855A8.66016,8.66016,0,0,1,1189.42676,278.9668Z"/><path class="cls-9" d="M1207.61414,279.46686a8.16965,8.16965,0,0,1,8.1604,8.1604V289.482a8.16966,8.16966,0,0,1-8.1604,8.1604h-18.18738a8.16965,8.16965,0,0,1-8.1604-8.1604v-1.85477a8.16965,8.16965,0,0,1,8.1604-8.1604h18.18738m0-1h-18.18738a9.18734,9.18734,0,0,0-9.1604,9.1604V289.482a9.18735,9.18735,0,0,0,9.1604,9.1604h18.18738a9.18736,9.18736,0,0,0,9.1604-9.1604v-1.85477a9.18735,9.18735,0,0,0-9.1604-9.1604Z"/><rect class="cls-15" x="1190.88615" y="209.09208" width="84.22852" height="125.08563" rx="38.2427"/><path class="cls-9" d="M1233.01855,316.39648c-4.75488,0-8.62792-4.11181-9.00585-9.45263h18.01074C1241.64551,312.28467,1237.77246,316.39648,1233.01855,316.39648Z"/><path class="cls-9" d="M1241.47412,307.44373c-.56946,4.8157-4.12561,8.45282-8.45593,8.45282s-7.88648-3.63712-8.45593-8.45282h16.91186m1.07459-1h-19.061c.16406,5.80267,4.36243,10.45282,9.53052,10.45282s9.36658-4.65015,9.53052-10.45282Z"/><path class="cls-9" d="M1224.00586,306.56152c.30078-2.582,2.14551-4.53662,4.373-4.53662,2.27734.01953,4.10449,2.00684,4.3623,4.61231Z"/><path class="cls-9" d="M1228.38025,301.52469l.02844,1.00012a4.17758,4.17758,0,0,1,3.749,3.60761l-7.564-.0658a4.13177,4.13177,0,0,1,3.7865-3.54193v-1m0,0c-2.64185,0-4.8031,2.45254-4.91394,5.53216l9.80517.0853c-.05749-3.0954-2.19555-5.59418-4.85412-5.61731l-.03711-.00015Z"/><path class="cls-9" d="M1233.208,305.94824a4.45668,4.45668,0,0,1,8.77539.07569Z"/><path class="cls-9" d="M1237.58716,301.80927l.03625,1.00015a3.90872,3.90872,0,0,1,3.73462,2.70944l-7.51489-.06543a3.915,3.915,0,0,1,3.744-2.64416v-1m0,0a4.88833,4.88833,0,0,0-4.93091,4.63388l9.87036.0859a4.88968,4.88968,0,0,0-4.89453-4.7196l-.04492-.00018Z"/><circle class="cls-14" cx="1229.49533" cy="284.31227" r="2.00245"/><circle class="cls-14" cx="1236.87058" cy="284.13951" r="2.00245"/><rect x="1215.81379" y="255.40902" width="5.76446" height="12.48966" rx="2.61727"/><rect x="1244.63607" y="255.40902" width="5.76446" height="12.48966" rx="2.61727"/><path d="M1189.23438,192.5h57.00244a24.80029,24.80029,0,0,1,24.80029,24.80029v5.12207a24.80078,24.80078,0,0,1-24.80078,24.80078h-57.00244a24.80029,24.80029,0,0,1-24.80029-24.80029v-5.12207A24.80078,24.80078,0,0,1,1189.23438,192.5Z"/><path d="M1246.23669,193a24.32774,24.32774,0,0,1,24.30018,24.30025v5.12262a24.32774,24.32774,0,0,1-24.30018,24.30025h-57.0028a24.32773,24.32773,0,0,1-24.30017-24.30025v-5.12262A24.32773,24.32773,0,0,1,1189.23389,193h57.0028m0-1h-57.0028a25.37463,25.37463,0,0,0-25.30017,25.30025v5.12262a25.37463,25.37463,0,0,0,25.30017,25.30025h57.0028a25.37464,25.37464,0,0,0,25.30018-25.30025v-5.12262A25.37464,25.37464,0,0,0,1246.23669,192Z"/><path class="cls-9" d="M1167.42383,457.99121a15.64638,15.64638,0,0,1-15.61328-14.77051l-.18164-3.26367a15.68854,15.68854,0,0,1,14.74707-16.48437l56.02246-3.11719c.293-.01563.583-.02442.87207-.02442a15.64492,15.64492,0,0,1,15.6123,14.77149l.18164,3.26269a15.65861,15.65861,0,0,1-14.74609,16.48536l-56.02246,3.11621c-.293.01562-.582.02441-.8711.02441Z"/><path class="cls-9" d="M1223.27026,420.83163a15.14426,15.14426,0,0,1,15.11341,14.29889l.18152,3.26285a15.15712,15.15712,0,0,1-14.27552,15.95743l-56.02209,3.11673c-.2832.01575-.56384.02347-.84412.02347a15.14426,15.14426,0,0,1-15.1134-14.29889l-.18152-3.26285a15.15712,15.15712,0,0,1,14.27551-15.95743l56.0221-3.11673c.2832-.01574.56384-.02347.84411-.02347m0-1c-.2987,0-.59777.00827-.89965.02506l-56.0221,3.11673a16.18732,16.18732,0,0,0-15.21838,17.01141l.18152,3.26285a16.19288,16.19288,0,0,0,16.11181,15.24338c.29883,0,.59778-.00827.89966-.02506l56.02209-3.11673a16.18733,16.18733,0,0,0,15.21839-17.01141l-.18152-3.26285a16.19287,16.19287,0,0,0-16.11182-15.24338Z"/><rect class="cls-15" x="1146.1301" y="427.71205" width="13.98859" height="25.14284" rx="6.35131" transform="matrix(0.04558, -0.99896, 0.99896, 0.04558, 660.73571, 1572.13981)"/><rect class="cls-15" x="1117.42376" y="417.70068" width="27.89523" height="42.89766" rx="12.66541" transform="translate(641.10663 1549.32696) rotate(-87.38736)"/><rect class="cls-15" x="1130.01022" y="408.04456" width="6.91428" height="31.04831" rx="3.13933" transform="translate(155.10045 1135.57778) rotate(-56.53571)"/><path class="cls-11" d="M1110.07177,424.32033h54.8227a0,0,0,0,1,0,0v6.54445a0,0,0,0,1,0,0h-56.2497a0,0,0,0,1,0,0v-5.11745A1.427,1.427,0,0,1,1110.07177,424.32033Z" transform="translate(2273.53924 855.1851) rotate(180)"/><path class="cls-11" d="M1014.04,430.86478h99.06665a2.59071,2.59071,0,0,0,2.62424-2.9775l-8.36391-70.49309a6.89268,6.89268,0,0,0-6.66171-5.955H1007.5936a5.18122,5.18122,0,0,0-5.24828,5.955l8.36391,70.49309A3.44636,3.44636,0,0,0,1014.04,430.86478Z"/><path class="cls-9" d="M1056.46387,394.72461a5.44678,5.44678,0,1,1,5.44629-5.44629A5.45288,5.45288,0,0,1,1056.46387,394.72461Z"/><path class="cls-9" d="M1056.46362,384.33121a4.94664,4.94664,0,1,1-4.94665,4.94665,4.95229,4.95229,0,0,1,4.94665-4.94665m0-1a5.94664,5.94664,0,1,0,5.94666,5.94665,5.94669,5.94669,0,0,0-5.94666-5.94665Z"/><line class="cls-16" x1="1231.66605" y1="454.76313" x2="1262.40982" y2="419.21565"/><line class="cls-16" x1="1215.81379" y1="420.17639" x2="1246.55756" y2="384.62891"/><line class="cls-16" x1="1169.21777" y1="423.05862" x2="1202.84377" y2="421.13714"/></g><g id="Main_Image" data-name="Main Image"><circle class="cls-1" cx="745.34981" cy="402.47529" r="73.43346"/><path class="cls-17" d="M560.57946,367.29783q-2.54046.45735-5.10369.7844L464.16,424.09715q.15558,1.07271.3574,2.12707Z"/><path class="cls-18" d="M877.0257,201.33909c-.78979-.30209-1.58146-.6-2.37776-.88774L473.489,446.53013c.40323.53607.80126,1.07639,1.2253,1.59468Z"/><path class="cls-19" d="M894.42109,209.43884q-1.0092-.55929-2.02777-1.10243L485.52719,457.91611c.61762.41258,1.24713.80626,1.8834,1.191Z"/><path class="cls-20" d="M903.096,214.67584c-.61837-.40516-1.23816-.8081-1.86321-1.20337L494.49562,462.97306l2.02684,1.103Z"/><path class="cls-21" d="M889.27652,206.72886c-.70511-.35246-1.41064-.70395-2.1223-1.04444L481.20808,454.69979c.54456.45667,1.11126.88594,1.67507,1.31877Z"/><path class="cls-22" d="M578.04348,362.45081q-4.08572,1.555-8.28856,2.73806L465.20711,429.32056c.17365.67446.34207,1.35127.54283,2.01332Z"/><path class="cls-23" d="M864.56652,197.25029q-1.33027-.3664-2.66936-.70887L468.318,437.97066q.42885.91011.89124,1.79959Z"/><path class="cls-24" d="M859.16188,195.873q-1.40236-.32475-2.81477-.61966L466.73859,434.24688c.23732.6354.50328,1.2548.76549,1.87673Z"/><path class="cls-25" d="M882.76368,203.68506q-1.12453-.48993-2.25814-.96112L476.71044,450.41982c.46562.50237.95589.97989,1.44148,1.46207Z"/><path class="cls-26" d="M933.477,241.79243c-.43111-.51917-.87044-1.03087-1.309-1.54335L533.12077,485.03253q.85267.64552,1.68876,1.31038Z"/><path class="cls-27" d="M927.40348,234.95969c-.47055-.49535-.948-.9836-1.42572-1.47175L524.85023,479.54748c.65343.37794,1.30569.75687,1.94676,1.15212Z"/><path class="cls-28" d="M930.16329,237.95937q-.67876-.75843-1.36651-1.50806L528.67211,481.89567c.61269.40163,1.21622.81447,1.81664,1.23194Z"/><path class="cls-29" d="M939.61414,249.7593c-.38852-.545-.78792-1.08114-1.1841-1.61995L541.06122,491.89321c.48684.48034.95874.97486,1.433,1.46731Z"/><path class="cls-30" d="M911.94118,220.98154q-.84725-.65648-1.70343-1.30138l-405.60807,248.808,2.02677,1.103Z"/><path class="cls-31" d="M916.07066,224.31419q-.80979-.67912-1.62851-1.34734L509.69668,471.2457l2.02683,1.103Z"/><path class="cls-32" d="M907.62123,217.76572c-.59181-.42246-1.1899-.83612-1.78844-1.24923L499.56262,465.73062l2.02684,1.103Z"/><path class="cls-33" d="M920.029,227.75181c-.51672-.468-1.04284-.92533-1.56655-1.38535L514.76373,474.00323l2.02678,1.103Z"/><path class="cls-34" d="M923.79531,231.30725c-.49234-.4809-.98284-.96372-1.48227-1.437L519.83073,476.76079l2.02683,1.103Z"/><path class="cls-35" d="M936.61765,245.73165c-.40931-.53162-.81859-1.06319-1.23545-1.58845L537.23813,488.37262q.79032.68484,1.56343,1.38726Z"/><path class="cls-36" d="M851.97271,194.41721q-1.50365-.26348-3.01643-.496L661.31141,309.02631l-.65391.71117a77.93123,77.93123,0,0,1-5.75866,5.56873Z"/><path class="cls-37" d="M502.794,368.7232a18.18744,18.18744,0,0,0-2.29567.64413,48.86729,48.86729,0,0,0-5.45269,1.76257l-15.03586,9.2233a49.45326,49.45326,0,0,0-5.36252,5.63577Z"/><path class="cls-38" d="M868.45993,198.38145,470.6827,442.38584c.34515.57212.70723,1.13121,1.07443,1.68723L870.97341,199.18593C870.13839,198.91094,869.30155,198.64057,868.45993,198.38145Z"/><path class="cls-39" d="M705.84849,260.58967l110.29026-67.65422c-.35794.03211-.71467.056-1.073.091q-1.77755.17335-3.53942.3921L710.797,255.20783Z"/><path class="cls-40" d="M529.72644,368.62641l-3.71057-.07017-61.17478,37.52582c-.20054.88122-.37318,1.77161-.52524,2.66849Z"/><path class="cls-41" d="M897.393,211.13526,490.41486,460.78368c.40378.20721.79862.43007,1.20854.62628l.84539.4601L899.33446,212.29064C898.69158,211.89864,898.04252,211.51674,897.393,211.13526Z"/><path class="cls-42" d="M723.91454,580.33624l-63.48379,38.9422c.3089-.02673.61572-.03886.92509-.069,1.26615-.12352,2.51946-.284,3.76619-.46238l56.19344-34.47017C722.22123,582.99083,723.08185,581.67276,723.91454,580.33624Z"/><path class="cls-43" d="M734.63255,556.16433,634.641,617.5011c.94579.21721,1.89956.40983,2.85624.59423l96.07745-58.9358Q734.12123,557.64627,734.63255,556.16433Z"/><path class="cls-44" d="M963.62637,347.65224,583.0783,581.08793c.35927.56317.73683,1.11248,1.109,1.666L963.24317,350.2336C963.378,349.37516,963.50776,348.51528,963.62637,347.65224Z"/><path class="cls-45" d="M749.73046,217.24749l14.79888-9.07793A136.00292,136.00292,0,0,0,749.73046,217.24749Z"/><path class="cls-46" d="M513.81469,367.82863c-1.31373-.02617-2.63869.00883-3.97154.08992L470.375,392.12907q-.99867,1.70082-1.85691,3.48536Z"/><path class="cls-47" d="M673.68282,295.57169l-4.94854,5.38184L844.24143,193.294q-1.63013-.18967-3.27022-.34029Z"/><path class="cls-48" d="M520.51307,368.41231q-1.57662-.24847-3.18109-.39495l-50.2251,30.80906c-.396.99332-.76717,1.99826-1.09872,3.02028Z"/><path class="cls-49" d="M539.00292,368.80179l-3.71057-.07017-71.47409,43.84362c-.07236.81026-.12741,1.62458-.15949,2.44413Z"/><path class="cls-50" d="M548.742,368.69342c-1.35574.07693-2.71344.13187-4.07382.15266L463.65845,418.539q.03638,1.13068.12515,2.26954Z"/><path class="cls-51" d="M686.05422,282.11707l-4.94854,5.38184,154.7521-94.928q-1.78935-.09662-3.58919-.14462Z"/><path class="cls-52" d="M698.42563,268.66245l-4.94854,5.38184,133.107-81.65047c-1.33169.01843-2.66609.05263-4.00452.11015Z"/><path class="cls-53" d="M733.39615,230.78673q-2.92356,2.83143-5.67488,5.82739l63.99369-39.255q-3.927,1.08793-7.74555,2.405Z"/><path class="cls-54" d="M723.16849,241.75318l-4.94859,5.38187,85.66353-52.5477c-1.913.34589-3.81347.72381-5.695,1.14714Z"/><path class="cls-55" d="M964.8716,326.94482q-.01821-1.15482-.05471-2.31274L574.74617,563.90915q.33763.96522.69692,1.91879Z"/><path class="cls-56" d="M780.77931,483.27725a76.16945,76.16945,0,0,1,8.41894-2.818l166.468-102.11474q.5893-1.51512,1.14211-3.0469Z"/><path class="cls-57" d="M796.0184,478.6219l6.804-1.82739,150.20814-92.14063q.71091-1.587,1.38211-3.19412Z"/><path class="cls-58" d="M750.611,508.822q1.04429-1.89981,2.23837-3.71937L599.02606,599.46089q.79965.68781,1.61618,1.3549Z"/><path class="cls-59" d="M813.02833,474.05343l6.804-1.82739,129.09332-79.18839q.90483-1.69867,1.75988-3.42584Z"/><path class="cls-60" d="M755.97625,500.83824a51.3259,51.3259,0,0,1,5.4082-5.6638L595.937,596.66316c.50113.47644,1.00073.95425,1.51338,1.418Z"/><path class="cls-61" d="M960.43054,363.69044q.36368-1.382.69832-2.77467l-372.146,228.28171q.64308.7815,1.30355,1.54667Z"/><path class="cls-62" d="M958.32847,370.84565q.46588-1.44266.89972-2.89821l-366.912,225.07107c.465.49988.942.98785,1.41885,1.476Z"/><path class="cls-63" d="M912.40929,436.55421,886.00851,452.749A136.01193,136.01193,0,0,0,912.40929,436.55421Z"/><path class="cls-64" d="M830.03826,469.485l6.804-1.82739,106.74126-65.47719c.79287-1.24572,1.572-2.5006,2.32478-3.77237Z"/><path class="cls-65" d="M862.87832,461.07173q3.67866-.95716,7.26675-2.11126l55.07174-33.7821q2.66467-2.6853,5.17043-5.51794Z"/><path class="cls-66" d="M727.02267,574.9102c.58251-1.11253,1.146-2.23586,1.67867-3.376l-78.28017,48.0186q1.87157.06186,3.75979.04Z"/><path class="cls-67" d="M735.63133,553.20536q.48813-1.47939.947-2.92719l-107.26907,65.801c.86361.26018,1.72815.51756,2.60241.74994Z"/><path class="cls-68" d="M730.74735,566.75965c.39518-1.00514.77464-2.01759,1.13124-3.04023l-89.86818,55.12691c1.06959.14528,2.14643.26306,3.227.36681Z"/><path class="cls-69" d="M710.512,596.76965q2.87165-2.72731,5.47859-5.707l-42.46526,26.049c2.57117-.64171,5.08494-1.41261,7.54748-2.28348Z"/><path class="cls-70" d="M746.81058,517.019c.41812-1.06475.84909-2.11625,1.304-3.14622l-144.96109,88.922q.86171.65084,1.741,1.27835Z"/><path class="cls-71" d="M737.91934,545.93609q.43565-1.44977.85-2.86773L623.187,613.96886c.78806.30651,1.57961.60459,2.37838.88736Z"/><path class="cls-72" d="M744.1821,524.49712q.47483-1.4927.97-2.94132L607.60539,605.92966q.92878.611,1.87408,1.19671Z"/><path class="cls-73" d="M740.00013,538.79394q.40916-1.4376.80675-2.84118l-123.2424,75.59932c.72619.346,1.46269.67173,2.19977.99692Z"/><path class="cls-74" d="M962.03882,356.83813c.18509-.88843.36452-1.77861.5321-2.6727L585.9068,585.21863c.39336.54169.78651,1.0835,1.19237,1.61487Z"/><path class="cls-75" d="M955.748,279.74959q-.36549-.94847-.74625-1.88854L559.65593,520.374c.2425.6338.492,1.26409.719,1.90527Z"/><path class="cls-76" d="M953.83708,275.05605c-.26562-.619-.53277-1.23715-.80717-1.85117L557.71506,515.69881c.27946.61177.53566,1.2358.80009,1.85551Z"/><path class="cls-77" d="M957.49324,284.5448c-.22141-.64588-.44524-1.29056-.67591-1.93169L561.39572,525.17253l.67793,1.93044Z"/><path class="cls-78" d="M942.43687,253.89354c-.36718-.55725-.73314-1.11532-1.10809-1.66658L544.57226,495.60523c.45075.5052.90824,1.00425,1.346,1.52063Z"/><path class="cls-79" d="M947.62833,262.4405c-.32525-.58275-.64857-1.16669-.982-1.74394L550.79562,503.51921q.56758.82405,1.11507,1.6623Z"/><path class="cls-80" d="M945.11907,258.114c-.34639-.57029-.70425-1.13232-1.05867-1.6969L547.82644,499.4748c.41362.527.81216,1.0652,1.21262,1.60247Z"/><path class="cls-81" d="M960.47269,294.44866q-.26257-1.01092-.53924-2.01552L564.78524,534.82484l.67788,1.93048Z"/><path class="cls-82" d="M949.53069,265.96616c-.30839-.59309-.61787-1.18538-.93458-1.773L552.97966,506.87208c.3503.5671.70059,1.13406,1.03692,1.71024Z"/><path class="cls-83" d="M951.76453,270.46164q-.43074-.909-.87611-1.80888L555.4742,511.20764c.315.58917.62589,1.18024.92652,1.778Z"/><path class="cls-84" d="M959.06894,289.444q-.29787-.98949-.61088-1.97158L563.0905,529.99867l.67789,1.93047Z"/><path class="cls-85" d="M964.84118,332.82924c.02148-.78886.03271-1.57959.0405-2.37115L576.563,568.66042c.26131.6214.54034,1.23258.816,1.84574Z"/><path class="cls-86" d="M964.62246,337.656c.05073-.80888.10034-1.61807.1367-2.43016l-386.5379,237.11c.28965.60445.58914,1.20286.8927,1.7987Z"/><path class="cls-87" d="M964.66207,321.20759c-.04327-.75293-.08446-1.50549-.14024-2.26027L573.19846,558.99279c.18752.66638.37348,1.3335.57679,1.99248Z"/><path class="cls-88" d="M964.09129,343.84759c.09046-.8321.177-1.6651.25235-2.5011L580.53011,576.78528c.32443.5834.64545,1.16882.98323,1.74317Z"/><path class="cls-89" d="M962.53931,303.73931c-.13087-.70127-.25925-1.4035-.40063-2.10054L567.83579,543.51193l.67794,1.93045Z"/><path class="cls-90" d="M961.47223,298.52813c-.15564-.68515-.32549-1.36416-.49116-2.045l-394.84,242.20265.67788,1.93048Z"/><path class="cls-91" d="M964.11279,314.50562c-.07786-.73357-.15328-1.46793-.24247-2.19756l-392.645,240.85619.67794,1.93044Z"/><path class="cls-92" d="M963.43133,309.05789c-.10484-.716-.22171-1.42739-.33737-2.13935L569.53058,548.33807l.67788,1.93048Z"/><path class="cls-93" d="M952.462,320.308a93.21026,93.21026,0,0,0-52.63038,16.18134,18.66072,18.66072,0,0,0-3.36706,1.36462L875.089,349.14813a80.34825,80.34825,0,0,1-70.03717,2.43994l-53.20648-23.53338a18.58468,18.58468,0,0,0-5.53138-1.48181l-21.72741-2.335a53.73117,53.73117,0,0,1-46.13861-39.44073v-.00006a18.55667,18.55667,0,0,0-.83661-2.38684A37.54613,37.54613,0,0,0,640.57605,251a37.95129,37.95129,0,0,0-3.94012.20679A18.56085,18.56085,0,0,0,633.938,251H606.504a18.58,18.58,0,0,1-18.31122-15.45593,49.2221,49.2221,0,0,0-48.89716-55.5022c-22.359,0-45.679,24.48212-53.30853,48.31537l-12.0686,27.06647a18.58388,18.58388,0,0,1-6.23114,7.59674l-64.32617,28.40924c-.01538.01092-.02039.02008-.035.03082A126.25231,126.25231,0,1,0,507.653,515.61487a18.6387,18.6387,0,0,0,2.743-1.38574l55.29351-34.48774a123.24617,123.24617,0,0,1,80.99622-17.66021L717.7674,471.253a144.26926,144.26926,0,0,0,26.40209.96753l63.34717-3.49158a134.44582,134.44582,0,0,1,54.63159,8.36609l26.16718,9.81879c3.294,1.236,14.6814,7.40289,25.58484,12.4079l.02685.01245c7.65479,3.51269,15.06788,6.4508,19.26917,6.7016a3.27883,3.27883,0,0,0,1.25079-.16925A93.65325,93.65325,0,1,0,952.462,320.308Z"/><path class="cls-94" d="M930.67185,410.22876a49.174,49.174,0,0,0-23.82791-42.115l-29.62628-20.03882a80.35306,80.35306,0,0,1-33.00452-47.34876L835.25987,264.36A83.22747,83.22747,0,0,0,677.436,243.39311c-16.33934,32.5415-16.52464,54.97076-42.36365,69.34538a71.15563,71.15563,0,0,1-22.86622,7.8502l-65.60222,10.99606A136.56269,136.56269,0,1,0,654.5041,565.15488l69.504-62.32629c14.27546-12.80124,49.977-30.65588,77.93745-41.45372a97.95415,97.95415,0,0,1,46.55413-5.902l20.29991,2.34926a49.24923,49.24923,0,0,0,12.71449,1.65554c.61444-.00057,1.223-.02512,1.83193-.048a20.1487,20.1487,0,0,0,5.81321-.55323A49.21312,49.21312,0,0,0,930.67185,410.22876Z"/><path class="cls-95" d="M819.718,370.1266l.90521-37.44116a83.22746,83.22746,0,0,0-146.78814-61.654c-24.30733,27.1123-30.37289,48.70663-59.0788,55.79566a71.15545,71.15545,0,0,1-24.125,1.57357l-66.18843-6.60727A136.56269,136.56269,0,1,0,567.258,575.49464l83.42543-41.89945"/><text class="cls-96" transform="translate(520.16797 418.77051) scale(0.99158 1)">KNEWBIE</text><text class="cls-97" transform="translate(524.00098 443.45117) scale(1.1858 1)">FOR STUDENTS, <tspan class="cls-98" x="128.18351" y="0">B</tspan><tspan x="137.59954" y="0">Y STUDENTS</tspan></text></g></svg>