<svg xmlns="http://www.w3.org/2000/svg" viewBox="0 0 286.15719 349.019"><defs><style>.cls-1{fill:#e5ac74;}.cls-2{fill:#38485c;}.cls-3{fill:#794627;}.cls-4{fill:#303d4e;}.cls-5{fill:#2b2b2b;}.cls-6{fill:#bec3c7;}.cls-7{fill:#df787d;}.cls-8{fill:#9caad1;}</style></defs><g id="Layer_2" data-name="Layer 2"><g id="Face"><path class="cls-1" d="M199.10507,86.24193s-19.71974,58.70064-45.40206,70.166c-3.8419,1.71508-8.37146,3.69735-12.62334,3.79708-3.44693.08085-7.16527-1.46557-8.63177-4.586a13.48892,13.48892,0,0,1-.93979-4.94485c-.96995-15.55267-2.81158-31.03292-4.403-46.54681Z"/></g><g id="Body"><path class="cls-2" d="M136.30493,183.29578s30.23964-3.8564,48.125,21.77418,26.59872,143.949,26.59872,143.949H37.21972L29.42355,293.07Z"/></g><g id="Hair"><path class="cls-3" d="M22.169,185.9991a128.6408,128.6408,0,0,1,23.03366-49.36719C57.4679,120.4485,79.63314,110.432,87.63819,91.68463c7.04418-16.497,5.78325-35.27093,12.84351-51.7906C107.148,24.29623,123.80287,4.44172,141.16134.73016c6.33687-1.35493,12.91187-.55659,19.342.24687,14.25853,1.78163,28.21728,5.61629,40.37254,13.64809,7.87451,5.20322,14.58473,12.8222,16.6791,22.02519,1.74437,7.665.17793,15.68194-1.93357,23.25409-4.38642,15.73033-11.90962,29.85827-27.04978,37.24272-14.42509,7.03569-31.84383,9.86486-40.95083,24.55418-8.4471,13.625-6.32219,30.96446-8.48911,46.84847-4.74049,34.74866-29.53218,58.39082-49.1166,85.21287-16.63706,22.78541-40.69115,45.38078-70.88933,43.8847-3.86647-.19156-7.86713-.81506-11.06678-2.99417C3.87711,291.80512,1.735,286.73868.85043,281.757c-3.63138-20.4524,5.13583-30.68981,11.78-48.89006,4.62386-12.66615,6.01179-26.2047,8.11722-39.43881Q21.34214,189.691,22.169,185.9991Z"/></g><g id="Body_Shadow" data-name="Body Shadow"><path class="cls-4" d="M103.25794,349.019s47.69427-14.21656,51.82166-33.01911,0,33.01911,0,33.01911Z"/></g><g id="Mobile_phone" data-name="Mobile phone"><rect class="cls-5" x="234.76948" y="232.23176" width="36.10124" height="71.90951" rx="7.39596" transform="translate(218.03484 -98.73582) rotate(37.89501)"/><rect class="cls-6" x="228.98988" y="228.57642" width="36.10124" height="78.22035" rx="7.39596" transform="translate(216.50908 -95.2913) rotate(37.89501)"/></g><g id="Phone_elements" data-name="Phone elements"><path class="cls-3" d="M264.041,239.9925h11.20045a.57325.57325,0,0,1,.57325.57325v0a.57325.57325,0,0,1-.57325.57325H264.041a.57324.57324,0,0,1-.57324-.57324v0a.57325.57325,0,0,1,.57325-.57325Z" transform="translate(204.61664 -114.89179) rotate(37.89501)"/><circle class="cls-3" cx="263.2899" cy="235.62228" r="0.88854"/><rect class="cls-7" x="241.90504" y="248.34679" width="10.27092" height="4.66242" rx="1.57802" transform="translate(206.06211 -98.87777) rotate(37.89501)"/><rect class="cls-7" x="245.47869" y="244.945" width="16.20292" height="4.66242" rx="1.57802" transform="translate(205.35164 -103.61184) rotate(37.89501)"/><rect class="cls-8" x="250.29232" y="266.47627" width="14.98443" height="4.66242" rx="1.57802" transform="translate(219.46305 -101.65411) rotate(37.89501)"/><rect class="cls-8" x="241.29905" y="269.95644" width="20.52827" height="4.66242" rx="1.57802" transform="translate(220.28877 -97.09902) rotate(37.89501)"/></g><g id="Hand"><path class="cls-1" d="M204.87293,289.94475c8.1223-14.4873,18.54407-23.6663,35.84416-24.20933a5.33838,5.33838,0,0,1,2.77518.43457c5.28947,2.92839-3.48361,9.29614-6.08589,10.25979-3.61765,1.33965-7.58493,1.79727-10.93157,3.71612a5.78852,5.78852,0,0,0-2.19157,1.952,11.17132,11.17132,0,0,0-.77971,2.00928c-.97672,2.7565-4.80629,4.90357-5.48337,7.29753-.88717,3.13679,1.27168,1.94,2.49274,1.60145,3.04671-.84464,4.75971-1.67414,8.12534-.75225,5.28324,1.44713,9.42741,4.37553,13.50372,7.87681.84806.72843,16.99593-18.53737,18.58276-20.24632,3.36169,3.23364,1.77125,8.9951-.08889,12.65443a26.4247,26.4247,0,0,1-8.07034,9.77348c-4.18843,2.95014-9.22251,4.137-14.20463,4.92379-5.012.79146-9.09655.3251-13.644,3.13515-5.3924,3.3322-9.88717,8.68748-15.581,11.40745-2.37985-4.32026-1.881-12.5679-2.49546-17.538C206.05129,299.47558,205.43846,294.71272,204.87293,289.94475Z"/></g></g></svg>