<svg xmlns="http://www.w3.org/2000/svg" viewBox="0 0 388 450.35981"><defs><style>.cls-1{fill:#aaa;}.cls-2{fill:#61045f;}.cls-3{fill:#aa076b;}.cls-4{fill:#8e4b32;}.cls-5{fill:#c37c4d;}.cls-6{fill:#f2aa7e;}.cls-7{fill:#fff;}.cls-8{fill:none;stroke:#000;stroke-miterlimit:10;}</style></defs><g id="Layer_2" data-name="Layer 2"><g id="Layer_1-2" data-name="Layer 1"><ellipse class="cls-1" cx="100.5" cy="418" rx="100.5" ry="17.35981"/><ellipse class="cls-1" cx="249" cy="433" rx="139" ry="17.35981"/><polygon points="348 358 293.524 206 211.044 206 155.946 358 348 358"/><rect x="207.78906" y="245.86816" width="29" height="183"/><path d="M236.28857,246.36853v182h-28v-182h28m1-1h-30v184h30v-184Z"/><path class="cls-2" d="M237.2455,431.11442a28.59436,28.59436,0,0,0-57.18859-.12561q-.00157.71927.033,1.42979l57.11625.12545Q237.24276,431.83358,237.2455,431.11442Z"/><rect x="267.21094" y="245.95605" width="29" height="183"/><path d="M295.71143,246.45593v182h-28v-182h28m1-1h-30v184h30v-184Z"/><path class="cls-2" d="M241.7545,431.69582a28.59436,28.59436,0,1,1,57.18859-.12561q.00158.71927-.033,1.42979l-57.11625.12545Q241.75724,432.415,241.7545,431.69582Z"/><path class="cls-3" d="M166.252,248.002A17.97664,17.97664,0,0,1,152.665,218.23828L188.6748,176.665a18,18,0,1,1,27.21094,23.57031L179.877,241.80859a18.00226,18.00226,0,0,1-13.625,6.19336Z"/><path class="cls-3" d="M202.29956,170.97174a17.50176,17.50176,0,0,1,13.20862,28.93573l-36.0091,41.57336A17.5,17.5,0,0,1,153.04321,218.566l36.00916-41.5734a17.50022,17.50022,0,0,1,13.24719-6.02084m0-1a18.4742,18.4742,0,0,0-14.00305,6.36612l-36.00916,41.57339a18.55444,18.55444,0,0,0,1.87165,26.09589l.00006,0a18.55311,18.55311,0,0,0,26.09588-1.87161l36.0091-41.5734a18.55432,18.55432,0,0,0-1.87164-26.09588v0a18.41169,18.41169,0,0,0-12.09284-4.49451Z"/><path class="cls-3" d="M109.85742,251.84375a17.99975,17.99975,0,0,1-.99707-35.97168l54.915-3.05566c.33691-.01856.66992-.02735,1.00293-.02735a18.00117,18.00117,0,0,1,.998,35.97266l-54.915,3.05469c-.33692.01855-.66992.02734-1.00293.02734Z"/><path class="cls-3" d="M164.7796,213.28915a17.50007,17.50007,0,0,1,.96845,34.97312l-54.9151,3.05517c-.32733.01819-.65168.02716-.97577.02716a17.50007,17.50007,0,0,1-.96845-34.97311l54.9151-3.05518c.32733-.01818.65168-.02716.97577-.02716m0-1c-.34253,0-.6853.00946-1.03131.02872l-54.9151,3.05515A18.55441,18.55441,0,0,0,91.3894,234.87207v0a18.56076,18.56076,0,0,0,18.46778,17.4725c.34253,0,.6853-.00946,1.03131-.02871l54.9151-3.05515a18.55438,18.55438,0,0,0,17.44379-19.49905v-.00006a18.56074,18.56074,0,0,0-18.46778-17.47248Z"/><rect class="cls-4" x="86.09055" y="220.39978" width="14.56019" height="26.17021" rx="7.28009" transform="translate(-144.12767 316.1155) rotate(-87.38737)"/><rect class="cls-4" x="56.21124" y="209.97933" width="29.03506" height="44.65052" rx="14.51752" transform="translate(-164.5584 292.37062) rotate(-87.38736)"/><rect class="cls-4" x="69.312" y="199.92865" width="7.19681" height="32.31699" rx="3.5984" transform="translate(-147.55994 157.75698) rotate(-56.5357)"/><path class="cls-3" d="M192.9043,277.09863v-79.793a43.38462,43.38462,0,0,1,43.335-43.335h35.33008a43.38462,43.38462,0,0,1,43.335,43.335v79.793Z"/><path class="cls-3" d="M271.5694,154.47046a42.8836,42.8836,0,0,1,42.83508,42.835v79.29285h-121V197.30551a42.88355,42.88355,0,0,1,42.835-42.835h35.3299m0-1H236.2395a43.96391,43.96391,0,0,0-43.835,43.835v80.29285h123V197.30551a43.96392,43.96392,0,0,0-43.83508-43.835Z"/><path d="M236.23926,335.63477c-23.89453,0-43.335-23.11329-43.335-51.52344V267.16406h122v16.94727c0,28.41015-19.44043,51.52344-43.335,51.52344Z"/><path d="M314.40448,267.66455v16.44721c0,28.13409-19.21576,51.02288-42.83508,51.02288H236.2395c-23.61932,0-42.835-22.88879-42.835-51.02288V267.66455h121m1-1h-123v17.44721c0,28.61261,19.72577,52.02288,43.835,52.02288h35.3299c24.10931,0,43.83508-23.41027,43.83508-52.02288V266.66455Z"/><rect class="cls-5" x="228" y="119" width="51" height="64" rx="25.49997"/><path class="cls-3" d="M241.62988,272.94531A17.975,17.975,0,0,1,228.044,243.18262l36.00878-41.57422a18.00033,18.00033,0,0,1,27.21192,23.57031L255.25488,266.752a18.00022,18.00022,0,0,1-13.624,6.19336Z"/><path class="cls-3" d="M277.67792,195.91553a17.47586,17.47586,0,0,1,13.20862,28.93573l-36.0091,41.57336a17.5,17.5,0,0,1-26.45581-22.91485l36.0091-41.5734a17.50019,17.50019,0,0,1,13.24719-6.02084m0-1a18.47416,18.47416,0,0,0-14.003,6.36612L227.66577,242.855a18.55442,18.55442,0,0,0,1.87158,26.09592h.00006a18.55312,18.55312,0,0,0,26.09589-1.87161l36.0091-41.5734a18.55438,18.55438,0,0,0-1.87159-26.09589l-.00006,0a18.41166,18.41166,0,0,0-12.09283-4.4945Z"/><path d="M292.5,203.5a17.019,17.019,0,0,1-17-17v-70a17,17,0,0,1,34,0v70A17.019,17.019,0,0,1,292.5,203.5Z"/><path d="M292.5,100A16.51867,16.51867,0,0,1,309,116.5V186.5a16.5,16.5,0,0,1-33,0V116.5A16.51867,16.51867,0,0,1,292.5,100m0-1A17.55144,17.55144,0,0,0,275,116.5V186.5a17.5,17.5,0,0,0,35,0V116.5A17.55144,17.55144,0,0,0,292.5,99Z"/><path d="M292,92.5A24.52752,24.52752,0,0,1,267.5,68V49a24.5,24.5,0,0,1,49,0V68A24.52752,24.52752,0,0,1,292,92.5Z"/><path d="M292,25a24.02717,24.02717,0,0,1,24,24V68a24,24,0,0,1-48,0V49a24.02717,24.02717,0,0,1,24-24m0-1a25.07348,25.07348,0,0,0-25,25V68a25,25,0,0,0,50,0V49a25.07348,25.07348,0,0,0-25-25Z"/><path class="cls-3" d="M283.5,107.5a10,10,0,0,1,0-20h17a10,10,0,0,1,0,20Z"/><path class="cls-3" d="M300.5,88a9.5,9.5,0,0,1,0,19h-17a9.5,9.5,0,0,1,0-19h17m0-1h-17a10.5,10.5,0,0,0,0,21h17a10.5,10.5,0,0,0,0-21Z"/><path d="M216,95.5A24.52752,24.52752,0,0,1,191.5,71V52a24.5,24.5,0,0,1,49,0V71A24.52752,24.52752,0,0,1,216,95.5Z"/><path d="M216,28a24.02717,24.02717,0,0,1,24,24V71a24,24,0,0,1-48,0V52a24.02717,24.02717,0,0,1,24-24m0-1a25.07348,25.07348,0,0,0-25,25V71a25,25,0,0,0,50,0V52a25.07348,25.07348,0,0,0-25-25Z"/><path d="M216.5,206.5a17.019,17.019,0,0,1-17-17v-70a17,17,0,0,1,34,0v70A17.019,17.019,0,0,1,216.5,206.5Z"/><path d="M216.5,103A16.51867,16.51867,0,0,1,233,119.5V189.5a16.5,16.5,0,0,1-33,0V119.5A16.51867,16.51867,0,0,1,216.5,103m0-1A17.55144,17.55144,0,0,0,199,119.5V189.5a17.5,17.5,0,0,0,35,0V119.5A17.55144,17.55144,0,0,0,216.5,102Z"/><path class="cls-3" d="M207.5,110.5a10,10,0,0,1,0-20h17a10,10,0,0,1,0,20Z"/><path class="cls-3" d="M224.5,91a9.5,9.5,0,0,1,0,19h-17a9.5,9.5,0,0,1,0-19h17m0-1h-17a10.5,10.5,0,0,0,0,21h17a10.5,10.5,0,0,0,0-21Z"/><rect class="cls-6" x="208.05378" y="17.79048" width="87.67021" height="130.19681" rx="43.83506"/><path class="cls-3" d="M251.90723,129.5c-4.96582,0-9.00977-4.2998-9.39551-9.87988h18.791C260.917,125.2002,256.87305,129.5,251.90723,129.5Z"/><path class="cls-3" d="M260.75482,120.12006C260.17688,125.17572,256.4494,129,251.90741,129s-8.26941-3.82428-8.84735-8.87994h17.69476m1.07257-1h-19.8399C242.15814,125.15985,246.52808,130,251.90741,130s9.74933-4.84015,9.92-10.87994Z"/><path class="cls-3" d="M242.50293,119.2627c.30762-2.709,2.24121-4.7627,4.57715-4.7627,2.38672.02051,4.30078,2.1084,4.56152,4.8418Z"/><path class="cls-3" d="M247.0799,114l.03,1.00015a4.40037,4.40037,0,0,1,3.95173,3.83719l-7.97327-.0694A4.352,4.352,0,0,1,247.0799,115v-1m0,0c-2.74976,0-4.99939,2.5528-5.11469,5.75821l10.20575.08881c-.05975-3.2219-2.28522-5.82279-5.05237-5.84684L247.0799,114Z"/><path class="cls-3" d="M252.08105,118.624a4.65874,4.65874,0,0,1,9.18165.08008Z"/><path class="cls-3" d="M256.66315,114.29623l.038,1.00016a4.10672,4.10672,0,0,1,3.94214,2.90234l-7.93317-.069a4.11352,4.11352,0,0,1,3.95307-2.83347v-1m0,0a5.088,5.088,0,0,0-5.13245,4.82328l10.27362.08938a5.08935,5.08935,0,0,0-5.09448-4.91244l-.04669-.00022Z"/><circle class="cls-5" cx="248.24058" cy="96.08428" r="2.08428"/><circle class="cls-5" cx="255.9172" cy="95.90446" r="2.08428"/><rect x="234" y="66" width="6" height="13" rx="3"/><rect x="264" y="66" width="6" height="13" rx="3"/><path d="M209,57.5a28.5,28.5,0,0,1,0-57h54a28.5,28.5,0,0,1,0,57Z"/><path d="M263,1a28,28,0,1,1,0,56H209a28,28,0,1,1,0-56h54m0-1H209a29.08524,29.08524,0,0,0-29,29V29a29.08524,29.08524,0,0,0,29,29h54a29.08524,29.08524,0,0,0,29-29V29A29.08524,29.08524,0,0,0,263,0Z"/><path class="cls-3" d="M185.23535,276.78809a18.00022,18.00022,0,0,1-.99609-35.97266l54.915-3.05469c.33691-.01855.6709-.02734,1.0039-.02734a18.00065,18.00065,0,0,1,.9961,35.97168l-54.915,3.05566c-.33692.01856-.66992.02735-1.00293.02735Z"/><path class="cls-3" d="M240.158,238.23294a17.501,17.501,0,0,1,.96838,34.97311l-54.9151,3.05518c-.32733.01819-.65167.02716-.97577.02716a17.50007,17.50007,0,0,1-.96844-34.97311l54.91516-3.05518c.32733-.01819.65167-.02716.97577-.02716m-.00006-1c-.34247,0-.68524.00946-1.03125.02872l-54.91516,3.05514a18.55445,18.55445,0,0,0-17.44379,19.49909l.00006,0a18.56068,18.56068,0,0,0,18.46771,17.47247c.34253,0,.68531-.00946,1.03132-.02872l54.9151-3.05514a18.55434,18.55434,0,0,0,17.44378-19.49906v0a18.56073,18.56073,0,0,0-18.46777-17.4725Z"/><rect class="cls-6" x="161.46893" y="245.34357" width="14.56019" height="26.17021" rx="7.28009" transform="translate(-97.10314 415.2223) rotate(-87.38737)"/><rect class="cls-6" x="131.58962" y="234.92313" width="29.03506" height="44.65052" rx="14.51752" transform="translate(-117.53389 391.47742) rotate(-87.38736)"/><rect class="cls-6" x="144.69037" y="224.87244" width="7.19681" height="32.31699" rx="3.5984" transform="translate(-134.55535 231.82921) rotate(-56.5357)"/><path class="cls-7" d="M123.8789,241.81326H181a0,0,0,0,1,0,0v6.81186a0,0,0,0,1,0,0H122.4519a0,0,0,0,1,0,0v-5.38486A1.427,1.427,0,0,1,123.8789,241.81326Z" transform="translate(303.45194 490.43839) rotate(180)"/><path class="cls-7" d="M23.98143,248.62513H127.09608a2.69658,2.69658,0,0,0,2.73148-3.09917l-8.70567-73.37353a7.17433,7.17433,0,0,0-6.93392-6.19833H17.27164a5.39294,5.39294,0,0,0-5.46274,6.19833L20.51458,245.526A3.58717,3.58717,0,0,0,23.98143,248.62513Z"/><circle class="cls-3" cx="68.13867" cy="205.33887" r="5.68945"/><path class="cls-3" d="M68.13855,200.14926a5.18964,5.18964,0,1,1-5.18964,5.18964,5.19553,5.19553,0,0,1,5.18964-5.18964m0-1a6.18964,6.18964,0,1,0,6.18964,6.18964,6.18966,6.18966,0,0,0-6.18964-6.18964Z"/><line class="cls-8" x1="250.5" y1="273.5" x2="282.5" y2="236.5"/><line class="cls-8" x1="234" y1="237.5" x2="266" y2="200.5"/><line class="cls-8" x1="185.5" y1="240.5" x2="220.5" y2="238.5"/></g></g></svg>