<svg xmlns="http://www.w3.org/2000/svg" viewBox="0 0 580 544"><defs><style>.cls-1{fill:#263238;}.cls-2{fill:#455a64;}.cls-3{fill:#61045f;}.cls-4{fill:#8e4b32;}.cls-5{fill:#843722;}.cls-6{fill:#aa076b;}.cls-7{fill:#aaa;}.cls-8{fill:#fff;}.cls-9{fill:none;stroke:#eee;stroke-miterlimit:10;}.cls-10{fill:#eee;}</style></defs><g id="Layer_2" data-name="Layer 2"><g id="Layer_1-2" data-name="Layer 1"><rect class="cls-1" x="129.63662" width="450.36338" height="333.44622"/><rect class="cls-2" x="146" y="17" width="414" height="299"/><path class="cls-3" d="M197,257.641a43.96393,43.96393,0,0,0-43.83507-43.83507H117.83507A43.96393,43.96393,0,0,0,74,257.641v80.29283H197Z"/><path d="M117.835,395.96973c-23.895,0-43.335-23.11328-43.335-51.52246V327.5h122v16.94727c0,28.40918-19.43994,51.52246-43.335,51.52246Z"/><path d="M196,328v16.4472c0,28.13413-19.21573,51.02289-42.83507,51.02289H117.83507C94.21573,395.47009,75,372.58133,75,344.4472V328H196m1-1H74v17.4472c0,28.61261,19.72578,52.02289,43.83507,52.02289h35.32986C177.27422,396.47009,197,373.05981,197,344.4472V327Z"/><circle class="cls-4" cx="178.98298" cy="141.72181" r="11.84119"/><circle class="cls-5" cx="179.1132" cy="141.67909" r="6.1102"/><circle class="cls-4" cx="89.70213" cy="140.73538" r="11.84119"/><circle class="cls-5" cx="89.83235" cy="140.69267" r="6.1102"/><rect class="cls-5" x="112.30727" y="171.75296" width="45.43741" height="69.35106" rx="22.71868"/><circle cx="134.8457" cy="114.83252" r="53.14893"/><path d="M134.84575,62.1838a52.64894,52.64894,0,1,1-52.64894,52.64894A52.70856,52.70856,0,0,1,134.84575,62.1838m0-1a53.64894,53.64894,0,1,0,53.64893,53.64894A53.64894,53.64894,0,0,0,134.84575,61.1838Z"/><rect class="cls-4" x="91.01064" y="83.42849" width="87.67021" height="130.19681" rx="43.83506"/><path d="M98.86182,113.02441a17.165,17.165,0,1,1,17.16455-17.165A17.18446,17.18446,0,0,1,98.86182,113.02441Z"/><path d="M98.8617,79.19445A16.66489,16.66489,0,1,1,82.19681,95.85934,16.68377,16.68377,0,0,1,98.8617,79.19445m0-1a17.66489,17.66489,0,1,0,17.66489,17.66489A17.66489,17.66489,0,0,0,98.8617,78.19445Z"/><path d="M117.18066,109.09863a25.67017,25.67017,0,1,1,25.67041-25.66992A25.69918,25.69918,0,0,1,117.18066,109.09863Z"/><path d="M117.18085,58.25828A25.17021,25.17021,0,1,1,92.01064,83.42849a25.19872,25.19872,0,0,1,25.17021-25.17021m0-1a26.17021,26.17021,0,1,0,26.17021,26.17021,26.17021,26.17021,0,0,0-26.17021-26.17021Z"/><circle cx="154.14648" cy="84.40967" r="29.92285"/><path d="M154.14628,54.987a29.42287,29.42287,0,1,1-29.42287,29.42287A29.45619,29.45619,0,0,1,154.14628,54.987m0-1a30.42287,30.42287,0,1,0,30.42287,30.42287A30.42287,30.42287,0,0,0,154.14628,53.987Z"/><circle cx="113.90967" cy="142.96582" r="5.38818"/><path d="M113.90957,138.07742a4.8883,4.8883,0,1,1-4.8883,4.8883,4.89383,4.89383,0,0,1,4.8883-4.8883m0-1a5.8883,5.8883,0,1,0,5.8883,5.8883,5.8883,5.8883,0,0,0-5.8883-5.8883Z"/><path d="M154.47363,148.354a5.38818,5.38818,0,1,1,5.38819-5.38818A5.39452,5.39452,0,0,1,154.47363,148.354Z"/><path d="M154.4734,138.07742a4.8883,4.8883,0,1,1-4.8883,4.8883,4.89384,4.89384,0,0,1,4.8883-4.8883m0-1a5.8883,5.8883,0,1,0,5.88831,5.8883,5.8883,5.8883,0,0,0-5.88831-5.8883Z"/><rect class="cls-5" x="131.57447" y="142.96572" width="7.19681" height="26.17021" rx="3.5984"/><path d="M147.76221,196.36182a26.6515,26.6515,0,0,0-27.97559-2.7334,16.00441,16.00441,0,0,1,.31836-13.33057l30.42139,5.87354A16.03644,16.03644,0,0,1,147.76221,196.36182Z"/><path d="M120.39157,180.86223l29.65874,5.72632a15.53242,15.53242,0,0,1-2.41275,9.05444,27.15453,27.15453,0,0,0-27.58966-2.69571,15.49944,15.49944,0,0,1,.34367-12.085m-.56371-1.12731a16.50609,16.50609,0,0,0-.283,14.57654,26.14722,26.14722,0,0,1,28.3227,2.76729,16.516,16.516,0,0,0,3.12624-11.32651l-31.16594-6.01732Z"/><path class="cls-6" d="M134.51611,203.34717a16.09366,16.09366,0,0,1-14.30664-8.812,25.65077,25.65077,0,0,1,26.96338,2.63476,15.88952,15.88952,0,0,1-10.30127,6.0044,16.24974,16.24974,0,0,1-2.35547.17285Z"/><path class="cls-6" d="M131.57447,192.38062a24.8736,24.8736,0,0,1,14.88489,4.87858,15.38569,15.38569,0,0,1-9.66041,5.4204,15.52959,15.52959,0,0,1-15.90609-7.9195,24.86324,24.86324,0,0,1,10.68161-2.37948m0-1a26.04687,26.04687,0,0,0-12.02961,2.93084,16.53509,16.53509,0,0,0,28.3227,2.76729,26.05152,26.05152,0,0,0-16.29309-5.69813Z"/><ellipse class="cls-7" cx="139" cy="526.64019" rx="139" ry="17.35981"/><rect x="91.5" y="339.5" width="29" height="183"/><path d="M120,340V522H92V340h28m1-1H91V523h30V339Z"/><path class="cls-8" d="M64.28223,525.55078q-.01466-.46288-.01368-.92871a28.09431,28.09431,0,1,1,56.18848.12305q-.00073.46728-.01807.92968Z"/><path d="M92.36129,497.08871l.06194.00007a27.62561,27.62561,0,0,1,27.53369,27.65487q-.00046.21222-.00449.42972l-55.18149-.12115q-.00307-.2174-.00261-.42975a27.63757,27.63757,0,0,1,27.593-27.53376m0-1a28.59412,28.59412,0,0,0-28.593,28.53156q-.00157.71928.033,1.42981l57.11625.12543q.03657-.71046.03931-1.42963a28.59439,28.59439,0,0,0-28.53149-28.6571l-.06413-.00007Z"/><rect x="150.92285" y="339.5874" width="29" height="182.99951"/><path d="M179.42284,340.0874v182h-28v-182h28m1-1h-30v184h30v-184Z"/><path class="cls-8" d="M150.98389,525.76172q-.01685-.46288-.01807-.92969a28.09431,28.09431,0,1,1,56.18848-.12305q.00145.46729-.01367.92969Z"/><path d="M179.06219,497.17612a27.63722,27.63722,0,0,1,27.59232,27.53375q.00047.21213-.0026.42972l-55.18149.12118q-.004-.21734-.00449-.42968a27.62563,27.62563,0,0,1,27.53384-27.65491l.06183-.00006h.00059m-.00059-1-.06419.00006a28.59438,28.59438,0,0,0-28.53148,28.6571q.00158.71924.03931,1.42963l57.11624-.12546q.03345-.71062.033-1.42978a28.59385,28.59385,0,0,0-28.59291-28.53155Z"/><rect class="cls-3" x="182" y="205" width="37" height="92" rx="18.49998" transform="translate(-115.38625 192.54378) rotate(-40.89773)"/><rect class="cls-3" x="197.5" y="239.5" width="92" height="37" rx="18.49998" transform="translate(-104.07177 186.93582) rotate(-35.10077)"/><line class="cls-9" x1="295.5" y1="83.5" x2="295.5" y2="216.5"/><rect class="cls-4" x="265.6348" y="224.4078" width="26.17021" height="14.56019" rx="7.28009" transform="translate(-83.64732 239.04071) rotate(-40.89773)"/><line class="cls-9" x1="432" y1="205.5" x2="299" y2="205.5"/><rect class="cls-4" x="273.43583" y="202.21557" width="44.65052" height="29.03506" rx="14.51752" transform="translate(-69.69615 246.54698) rotate(-40.89772)"/><rect class="cls-8" x="273.14524" y="193.16447" width="38.65879" height="9.86424" transform="translate(-17.98777 366.60999) rotate(-62.60257)"/><rect class="cls-4" x="267.84223" y="201.7567" width="32.31699" height="7.19681" rx="3.5984" transform="translate(0.0342 410.7575) rotate(-71.74938)"/><rect class="cls-3" x="26.82348" y="239.4055" width="92" height="37" rx="18.49998" transform="translate(-194.34832 236.98345) rotate(-69.75452)"/><rect class="cls-3" x="7.33936" y="297.54429" width="92" height="37" rx="18.49998" transform="translate(-266.01786 288.84042) rotate(-75.55148)"/><rect class="cls-4" x="28.0549" y="351.00096" width="26.17021" height="14.56019" rx="7.28009" transform="translate(-309.24218 272.89873) rotate(-69.75452)"/><rect class="cls-4" x="10.83131" y="364.98409" width="44.65052" height="29.03506" rx="14.51752" transform="translate(-334.37253 279.28587) rotate(-69.75452)"/><rect class="cls-4" x="2.20342" y="368.91156" width="32.31699" height="7.19681" rx="3.5984" transform="translate(-229.86449 94.14962) rotate(-38.90286)"/><path class="cls-10" d="M334,111v82H322V111h12m1-1H321v84h14V110Z"/><path class="cls-10" d="M348,136v57H336V136h12m1-1H335v59h14V135Z"/><path class="cls-10" d="M362,128v65H350V128h12m1-1H349v67h14V127Z"/><path class="cls-10" d="M376.33121,166v27.26433h-12V166h12m1-1h-14v29.26433h14V165Z"/><path class="cls-10" d="M404.33121,176v17.3965h-12V176h12m1-1h-14v19.3965h14V175Z"/><path class="cls-10" d="M390.33121,97v96.26432h-12V97h12m1-1h-14v98.26432h14V96Z"/><line class="cls-9" x1="427" y1="199" x2="432" y2="206"/><line class="cls-9" x1="432.07164" y1="206.03959" x2="426.70543" y2="212.76296"/><line class="cls-9" x1="288.81487" y1="87.954" x2="295.7708" y2="82.89288"/><line class="cls-9" x1="295.80976" y1="82.82089" x2="302.57988" y2="88.12801"/></g></g></svg>